<svg width="788" height="778" viewBox="0 0 788 778" fill="none" xmlns="http://www.w3.org/2000/svg">
<g clip-path="url(#clip0_51_19)">
<path d="M237.033 1.43909L264.637 13.4139C359.631 67.1702 436.905 147.288 488.108 245.112C533.672 332.127 556.905 429.429 555.951 528.298L528.347 516.323C529.3 417.455 506.068 320.152 460.503 233.137C409.3 135.313 332.027 55.1954 237.033 1.43909Z" fill="#3658C1"/>
<path d="M555.952 529.295C555.817 529.295 555.681 529.268 555.554 529.212L527.949 517.238C527.581 517.078 527.344 516.714 527.348 516.312C528.299 417.791 504.879 320.031 459.62 233.6C408.507 135.95 331.368 55.97 236.541 2.30749C236.078 2.04597 235.902 1.46904 236.139 0.993922C236.376 0.518803 236.942 0.311188 237.43 0.522795L265.035 12.4976C265.067 12.5116 265.099 12.5275 265.13 12.5445C360.292 66.3966 437.703 146.657 488.993 244.648C534.403 331.369 557.903 429.456 556.949 528.306C556.946 528.64 556.775 528.951 556.494 529.133C556.329 529.24 556.14 529.294 555.951 529.294L555.952 529.295ZM529.35 515.67L554.965 526.782C555.665 428.768 532.253 331.568 487.223 245.575C436.121 147.942 358.995 67.9697 264.191 14.3082L251.833 8.94717C340.455 62.5907 412.692 139.641 461.387 232.674C506.695 319.201 530.191 417.048 529.349 515.67H529.35Z" fill="#111111"/>
<path d="M528.346 516.322L598.397 531.344L392.503 764.467L318.224 471.29L381.231 484.784C369.142 341.831 287.411 210.773 161.999 139.802L237.033 1.43909C332.027 55.1954 409.301 135.313 460.503 233.137C506.068 320.152 529.3 417.455 528.347 516.323L528.346 516.322Z" fill="#B0C3FF"/>
<path d="M392.503 765.466C392.424 765.466 392.346 765.457 392.268 765.438C391.909 765.351 391.626 765.072 391.535 764.713L317.257 471.535C317.172 471.201 317.266 470.847 317.505 470.598C317.745 470.348 318.095 470.242 318.434 470.315L380.12 483.526C367.468 339.122 285.82 211.02 161.506 140.671C161.033 140.402 160.861 139.804 161.121 139.326L236.154 0.963959C236.282 0.728396 236.499 0.55372 236.757 0.479857C237.015 0.406992 237.291 0.438932 237.525 0.570688C332.688 54.4228 410.098 134.683 461.388 232.674C506.674 319.158 530.169 416.944 529.352 515.518L598.606 530.369C598.953 530.444 599.235 530.697 599.345 531.033C599.456 531.369 599.38 531.74 599.146 532.006L393.252 765.129C393.06 765.346 392.786 765.466 392.503 765.466ZM319.587 472.603L393.006 762.39L596.519 531.963L528.136 517.298C527.673 517.199 527.343 516.786 527.347 516.312C528.298 417.791 504.878 320.031 459.619 233.6C408.666 136.254 331.848 56.468 237.425 2.80954L163.343 139.417C224.369 174.142 276.779 224.384 314.955 284.766C352.991 344.927 376.253 414.064 382.226 484.701C382.252 485.015 382.128 485.325 381.891 485.533C381.654 485.742 381.33 485.827 381.022 485.761L319.588 472.603H319.587Z" fill="#111111"/>
<path d="M598.397 531.345L626.002 543.32L420.109 776.443L392.503 764.468L598.397 531.345Z" fill="#3658C1"/>
<path d="M420.108 777.441C419.974 777.441 419.839 777.414 419.711 777.358L392.107 765.383C391.813 765.256 391.598 764.996 391.529 764.684C391.461 764.373 391.544 764.047 391.756 763.807L597.65 530.684C597.936 530.361 598.399 530.257 598.795 530.43L626.4 542.405C626.693 542.531 626.908 542.792 626.977 543.103C627.046 543.415 626.962 543.741 626.75 543.981L420.856 777.104C420.663 777.324 420.388 777.442 420.108 777.442V777.441ZM394.16 764.099L419.84 775.238L624.344 543.688L598.665 532.549L394.16 764.099Z" fill="#111111"/>
</g>
<defs>
<clipPath id="clip0_51_19">
<rect width="466" height="777" fill="white" transform="translate(161 0.440918)"/>
</clipPath>
</defs>
</svg>
