<svg height="1654.571" viewBox="0 0 2135.103 1654.571" width="2135.103" xmlns="http://www.w3.org/2000/svg"><path d="m1140.874 426.558-123.933 355.277-366.989-247.537 123.933-355.277z" fill="#b0c3ff"/><path d="m1016.941 782.835c-.197 0-.392-.059-.559-.171l-366.989-247.537c-.376-.254-.535-.729-.385-1.158l123.933-355.276c.103-.293.334-.522.629-.62.295-.097.618-.052.875.12l366.989 247.537c.376.254.535.729.385 1.158l-123.934 355.276c-.103.293-.334.522-.629.62-.103.034-.209.051-.315.051zm-365.791-248.936 365.274 246.381 123.252-353.323-365.275-246.381-123.252 353.323z" fill="#111"/><path d="m921.553 474.697-39.079-26.359-13.197 37.832 39.079 26.359z" fill="#fff"/><path d="m908.356 513.529c-.197 0-.392-.059-.559-.171l-39.079-26.359c-.376-.254-.535-.729-.385-1.158l13.197-37.832c.103-.293.334-.522.629-.62.294-.097.618-.052.875.12l39.079 26.359c.376.254.535.729.385 1.158l-13.197 37.832c-.103.293-.334.522-.629.62-.103.034-.209.051-.315.051zm-37.881-27.758 37.365 25.203 12.516-35.879-37.364-25.203-12.516 35.879z" fill="#111"/><path d="m1140.874 426.558 262.958-178.021-123.933 355.277-262.958 178.021z" fill="#3658c1"/><path d="m1016.941 782.835c-.215 0-.43-.069-.61-.207-.341-.263-.477-.716-.334-1.122l123.934-355.276c.071-.203.206-.378.384-.499l262.958-178.021c.356-.242.828-.227 1.17.035.341.263.477.715.334 1.122l-123.933 355.277c-.071.203-.206.378-.384.499l-262.958 178.021c-.169.115-.365.172-.561.172zm124.769-355.634-122.831 352.114 260.185-176.144 122.83-352.115-260.185 176.145z" fill="#111"/><path d="m1217.785 524.628 13.197-37.832-28.001 18.957-13.197 37.832z" fill="#fff"/><path d="m1189.783 544.585c-.215 0-.431-.069-.61-.207-.341-.263-.476-.716-.334-1.122l13.197-37.831c.071-.203.206-.378.384-.499l28.001-18.957c.356-.242.828-.228 1.17.035.341.263.476.715.334 1.122l-13.197 37.832c-.071.203-.206.378-.384.499l-28.001 18.956c-.169.115-.365.172-.561.172zm14.032-38.188-12.094 34.669 25.229-17.079 12.094-34.67zm13.969 18.232h.01z" fill="#111"/><path d="m773.885 179.021 262.958-178.021 366.989 247.537-262.958 178.021z" fill="#fff"/><path d="m1140.874 427.558c-.195 0-.39-.057-.559-.171l-366.989-247.537c-.275-.186-.44-.496-.441-.828s.165-.643.439-.829l262.958-178.021c.339-.229.782-.229 1.12 0l366.989 247.537c.275.186.44.496.441.828s-.165.643-.439.829l-262.958 178.021c-.169.114-.365.172-.561.172zm-365.203-248.539 365.202 246.332 261.172-176.813-365.201-246.331-261.173 176.813z" fill="#111"/><path d="m1185.787 148.164s-98.05-3.061-169.63-51.342c0 0-127.987 86.646-24.216 182.574 142.147 69.947 270.134-16.7 270.134-16.7-71.579-48.281-76.289-114.532-76.289-114.532" fill="#3658c1"/><path d="m1108.337 307.675c-4.775 0-9.532-.127-14.271-.381-35.512-1.902-70.02-10.986-102.565-27.001-.086-.043-.167-.098-.237-.163-29.251-27.04-42.932-55.964-40.662-85.968 4.27-56.438 64.389-97.757 64.996-98.168.339-.228.782-.229 1.12 0 70.51 47.56 168.124 51.141 169.102 51.172.512.016.93.417.966.928.012.165 1.296 16.715 11.256 38.91 9.188 20.474 27.852 50.081 64.594 74.864.275.186.44.496.441.828s-.165.643-.439.829c-.321.218-32.71 21.906-82.071 34.72-24.155 6.271-48.389 9.431-72.229 9.431zm-115.823-29.112c73.104 35.923 142.337 29.482 187.549 17.746 43.621-11.323 73.842-29.587 80.206-33.632-36.349-24.898-54.905-54.439-64.092-74.943-8.766-19.564-10.888-34.844-11.3-38.607-9.941-.469-101.356-5.98-168.708-51.092-6.044 4.284-59.6 43.688-63.574 96.288-2.215 29.325 11.214 57.666 39.919 84.24z" fill="#111"/><path d="m1157.757 167.14s-73.85-2.999-128.48-39.847c0 0-95.006 64.318-15.411 137.26 108.088 53.651 203.094-10.667 203.094-10.667-54.629-36.848-59.203-86.746-59.203-86.746" fill="#b0c3ff"/><path d="m1104.005 286.839c-27.119 0-58.248-5.34-90.583-21.39-.084-.041-.162-.095-.231-.158-22.882-20.97-33.625-43.294-31.93-66.354 3.084-41.971 47.013-72.172 47.457-72.472.339-.228.782-.229 1.12 0 53.758 36.26 127.225 39.647 127.961 39.678.501.021.909.408.955.907.046.495 5.196 49.875 58.767 86.009.275.186.44.496.441.828s-.165.643-.439.829c-.239.162-24.325 16.286-61.331 25.595-14.474 3.641-32.248 6.529-52.186 6.529zm-89.567-23.118c55.485 27.497 107.397 23.155 141.19 14.668 31.945-8.024 54.158-21.16 59.521-24.525-49.349-33.949-57.343-78.999-58.281-85.769-8.37-.489-76.544-5.474-127.578-39.589-5.054 3.612-43.215 32.114-46.036 70.587-1.641 22.382 8.849 44.123 31.183 64.628z" fill="#111"/><path d="m665.611 755.736 242.745-243.207 13.197-37.832-236.564 228.853z" fill="#3658c1"/><path d="m665.611 756.736c-.186 0-.374-.052-.539-.158-.396-.254-.562-.749-.398-1.189l19.377-52.187c.052-.141.135-.268.242-.371l236.564-228.853c.333-.321.843-.374 1.234-.124s.558.734.406 1.172l-13.197 37.832c-.05.143-.13.271-.236.377l-242.745 243.207c-.193.194-.45.294-.708.294zm20.236-52.626-17.7 47.67 239.34-239.796 11.735-33.641z" fill="#111"/><path d="m882.474 448.338 39.079 26.359-236.564 228.853-39.528-28.719z" fill="#fff"/><path d="m684.988 704.55c-.205 0-.411-.063-.587-.191l-39.528-28.719c-.24-.174-.39-.445-.41-.741s.092-.586.307-.79l237.014-226.493c.339-.325.86-.368 1.25-.106l39.079 26.359c.25.169.411.441.437.741.026.301-.084.597-.301.807l-236.564 228.853c-.192.187-.443.281-.696.281zm-37.97-29.823 37.879 27.521 235.074-227.411-37.388-25.219z" fill="#111"/><g fill="none"><path d="m932.126 605.085-181.977 490.081-371.207-269.698 181.977-490.081z" fill="#fff"/><path d="m750.149 1096.166c-.208 0-.415-.065-.588-.191l-371.207-269.697c-.363-.263-.506-.736-.35-1.156l181.977-490.081c.109-.294.349-.52.648-.609.3-.092.625-.035.877.148l371.207 269.697c.363.264.506.736.35 1.156l-181.977 490.081c-.109.294-.349.52-.648.609-.095.029-.192.043-.289.043zm-370.005-271.061 369.527 268.477 181.253-488.134-369.527-268.477z" fill="#111"/><path d="m684.989 703.55-39.528-28.719-19.378 52.186 39.528 28.719z" fill="#fff"/><path d="m665.611 756.736c-.208 0-.415-.065-.588-.191l-39.528-28.719c-.363-.264-.506-.736-.35-1.156l19.378-52.187c.109-.294.349-.52.648-.609.298-.093.624-.036.877.148l39.528 28.719c.363.264.506.736.35 1.156l-19.377 52.187c-.109.294-.349.52-.648.609-.095.029-.192.043-.289.043zm-38.327-30.082 37.848 27.498 18.654-50.239-37.848-27.498-18.655 50.239z" fill="#111"/><path d="m554.183 634.005-181.976 490.081-371.207-269.698 181.977-490.081z" fill="#b0c3ff"/><g fill="#111"><path d="m372.207 1125.086c-.208 0-.415-.065-.588-.191l-371.207-269.698c-.363-.263-.506-.736-.35-1.156l181.977-490.081c.109-.294.349-.52.648-.609.299-.093.625-.035.877.148l371.207 269.697c.363.264.506.736.35 1.156l-181.977 490.081c-.109.294-.349.52-.648.609-.095.029-.192.043-.289.043zm-370.005-271.061 369.526 268.477 181.253-488.134-369.526-268.477z"/><path d="m418.177 754.755c-.116 0-.233-.02-.348-.063-.518-.192-.782-.768-.589-1.285l27.904-75.19-27.976-20.498c-.361-.265-.502-.735-.347-1.154l35.669-96.11c.192-.519.768-.784 1.286-.59.518.192.782.768.589 1.285l-35.407 95.402 27.976 20.498c.361.265.502.735.347 1.154l-28.167 75.898c-.149.403-.532.652-.938.652z"/><path d="m319.566 611.148c-.116 0-.233-.02-.348-.063-.518-.192-.782-.768-.589-1.285l42.869-115.452c.193-.519.77-.784 1.286-.59.518.192.782.768.589 1.285l-42.869 115.452c-.15.403-.532.652-.938.652z"/><path d="m231.171 1022.051c-.116 0-.233-.02-.348-.063-.518-.192-.782-.768-.589-1.285l82.674-222.649c.192-.519.769-.782 1.286-.59.518.192.782.768.589 1.285l-82.674 222.649c-.15.403-.532.652-.938.652z"/><path d="m65.404 901.64c-.116 0-.233-.02-.348-.063-.518-.192-.782-.769-.589-1.286l66.831-179.853c.109-.293.349-.519.648-.608.299-.093.624-.036.877.148l28.915 21.007 26.721-72.525c.191-.519.768-.784 1.284-.593.518.191.784.766.593 1.284l-27.178 73.766c-.108.294-.348.521-.648.611-.301.088-.625.035-.878-.148l-28.917-21.009-66.372 178.617c-.15.402-.532.651-.938.651z"/></g><path d="m319.623 609.993c-.505-.367-1.02-.673-1.541-.923-4.802-2.296-10.098.324-12.379 6.468-2.528 6.809-.397 15.371 4.762 19.119 5.158 3.748 11.392 1.264 13.92-5.546 2.281-6.144.769-13.712-3.336-17.886-.445-.452-.921-.866-1.426-1.233" fill="#fff"/><path d="m315.528 637.403c-1.945 0-3.889-.657-5.651-1.938-5.489-3.987-7.782-13.083-5.111-20.274 1.314-3.541 3.621-6.131 6.494-7.294 2.334-.945 4.912-.85 7.254.271.582.278 1.152.62 1.698 1.017.538.391 1.06.841 1.55 1.339 4.456 4.53 5.953 12.494 3.561 18.937-1.428 3.845-4.079 6.604-7.274 7.568-.831.251-1.676.375-2.521.375zm-.965-28.158c-.862 0-1.72.169-2.553.506-2.346.95-4.253 3.129-5.369 6.136-2.379 6.408-.4 14.466 4.412 17.962 2.009 1.459 4.291 1.908 6.417 1.266 2.591-.783 4.77-3.098 5.978-6.351 2.101-5.658.764-12.897-3.111-16.837-.414-.42-.851-.798-1.3-1.124-.447-.325-.913-.604-1.385-.83-1.012-.484-2.053-.728-3.088-.728z" fill="#111"/><path d="m322.726 774.328c-5.158-3.747-11.378-1.255-13.906 5.556-2.275 6.128-.774 13.686 3.329 17.858.446.454.921.867 1.425 1.234s1.02.673 1.541.922c4.802 2.298 10.097-.322 12.373-6.45 2.529-6.81.397-15.371-4.762-19.119" fill="#fff"/><path d="m318.644 801.717c-1.338 0-2.684-.307-3.96-.917-.581-.277-1.152-.619-1.697-1.015-.539-.392-1.061-.843-1.552-1.342-4.447-4.522-5.942-12.475-3.553-18.907 1.43-3.851 4.081-6.612 7.275-7.577 2.735-.83 5.633-.273 8.157 1.561 5.489 3.988 7.782 13.084 5.111 20.275-1.311 3.531-3.614 6.116-6.484 7.277-1.064.431-2.178.645-3.297.645zm-.984-28.129c-.647 0-1.292.094-1.924.285-2.589.782-4.769 3.101-5.979 6.358-2.098 5.65-.763 12.877 3.104 16.81.414.421.851.8 1.3 1.125.447.325.914.604 1.385.829 1.857.889 3.809.967 5.644.223 2.343-.947 4.247-3.121 5.36-6.118 2.379-6.408.4-14.466-4.412-17.963-1.409-1.022-2.95-1.549-4.479-1.549z" fill="#111"/><path d="m198.332 644.724c-5.158-3.748-11.391-1.265-13.92 5.546-2.281 6.143-.768 13.712 3.336 17.885.769.899 1.757 1.619 2.967 2.155 4.802 2.298 10.098-.324 12.379-6.467 2.529-6.81.397-15.371-4.762-19.119" fill="#fff"/><path d="m194.241 672.13c-1.338 0-2.683-.307-3.958-.917-1.313-.583-2.431-1.396-3.295-2.408-4.408-4.478-5.906-12.44-3.514-18.883 1.428-3.845 4.079-6.604 7.273-7.568 2.743-.828 5.645-.274 8.172 1.563 5.489 3.988 7.782 13.084 5.111 20.275-1.315 3.541-3.622 6.131-6.495 7.294-1.063.43-2.177.645-3.295.645zm-.985-28.148c-.649 0-1.296.095-1.93.286-2.591.783-4.769 3.098-5.977 6.351-2.102 5.659-.764 12.896 3.112 16.836.716.834 1.595 1.47 2.66 1.942 1.88.898 3.83.977 5.666.234 2.346-.949 4.253-3.128 5.37-6.136 2.379-6.407.399-14.465-4.412-17.962-1.411-1.024-2.956-1.552-4.488-1.552z" fill="#111"/><path d="m418.177 753.754c-.51-.37-1.029-.679-1.555-.928-4.798-2.285-10.086.337-12.365 6.474-2.529 6.81-.397 15.371 4.762 19.119 5.145 3.738 11.378 1.255 13.906-5.556 2.281-6.142.77-13.707-3.323-17.875-.445-.452-.921-.867-1.425-1.234" fill="#fff"/><path d="m414.066 781.159c-1.941 0-3.879-.655-5.635-1.932-5.489-3.988-7.782-13.084-5.111-20.275 1.313-3.537 3.617-6.126 6.487-7.29 2.333-.947 4.905-.853 7.246.261.59.281 1.167.625 1.714 1.023.535.389 1.056.839 1.549 1.34 4.447 4.529 5.938 12.487 3.548 18.925-1.428 3.847-4.081 6.607-7.277 7.573-.831.251-1.676.375-2.52.375zm-.951-28.151c-.864 0-1.723.169-2.558.508-2.343.95-4.248 3.128-5.363 6.132-2.379 6.408-.4 14.466 4.412 17.963 2.001 1.453 4.275 1.9 6.401 1.259 2.592-.783 4.772-3.099 5.98-6.354 2.1-5.655.768-12.889-3.099-16.827-.416-.422-.854-.801-1.299-1.124-.447-.325-.917-.606-1.396-.834-1.009-.48-2.046-.722-3.077-.722z" fill="#111"/><path d="m554.183 634.005 377.943-28.92-181.977 490.081-377.942 28.92z" fill="#3658c1"/><path d="m372.207 1125.086c-.313 0-.609-.146-.799-.398-.205-.271-.257-.63-.139-.949l181.977-490.081c.136-.366.472-.619.861-.649l377.942-28.92c.338-.018.669.123.875.396.205.272.257.63.139.949l-181.977 490.081c-.136.366-.472.62-.861.649l-377.942 28.92c-.025.002-.051.003-.076.003zm182.691-490.133-181.21 488.017 375.746-28.752 181.21-488.017z" fill="#111"/><path d="m662.595 889.144 19.378-52.187-40.246 3.08-19.377 52.186z" fill="#fff"/><path d="m622.349 893.223c-.313 0-.609-.146-.799-.398-.205-.272-.257-.63-.139-.949l19.378-52.187c.136-.366.472-.62.861-.649l40.246-3.08c.341-.019.67.123.875.396s.257.63.139.949l-19.378 52.187c-.136.366-.472.62-.861.649l-40.246 3.08c-.025.002-.051.003-.076.003zm20.093-52.238-18.611 50.122 38.05-2.912 18.611-50.122zm20.153 48.158h.01z" fill="#111"/><path d="m182.977 364.307 377.942-28.92 371.207 269.698-377.943 28.92z" fill="#fff"/><path d="m554.183 635.005c-.21 0-.417-.066-.588-.191l-371.206-269.698c-.339-.246-.488-.678-.375-1.081.115-.403.468-.692.886-.725l377.942-28.92c.236-.016.472.049.664.188l371.207 269.697c.339.246.488.678.375 1.081-.114.403-.468.692-.886.725l-377.942 28.92c-.025.002-.051.003-.076.003zm-368.418-269.908 368.708 267.882 374.864-28.685-368.708-267.882z" fill="#111"/><path d="m691.475 474.451c-36.656-26.632-96.824-45.97-134.132-43.115l-34.736 2.658 16.276 11.826 34.736-2.658c28.178-2.156 73.621 12.449 101.297 32.557 27.675 20.107 27.253 38.212-.925 40.368l-34.736 2.658 16.276 11.826 34.736-2.658c37.308-2.855 37.849-26.838 1.207-53.46" fill="#3658c1"/><path d="m655.532 531.57c-.21 0-.417-.066-.588-.191l-16.277-11.826c-.339-.246-.488-.678-.374-1.081s.468-.692.886-.725l34.736-2.658c11.385-.871 18.535-4.46 20.135-10.107 2.108-7.445-5.08-17.816-19.722-28.454-27.513-19.988-72.652-34.508-100.633-32.368l-34.736 2.657c-.235.019-.472-.048-.664-.188l-16.276-11.825c-.339-.246-.488-.678-.374-1.081s.468-.692.886-.725l34.736-2.658c37.505-2.867 97.98 16.556 134.796 43.304 20.226 14.694 30.063 29.348 26.99 40.201-1.7 6.001-8.06 13.485-28.708 15.065l-34.736 2.658c-.025.002-.051.003-.076.003zm-13.489-12.036 13.779 10.011 34.369-2.63c15.213-1.164 24.779-6 26.937-13.616 2.832-10-6.732-23.865-26.241-38.039-36.487-26.509-96.361-45.762-133.468-42.927l-32.024 2.451 13.779 10.01 34.37-2.629c28.379-2.163 74.12 12.518 101.961 32.745 15.359 11.158 22.82 22.317 20.47 30.616-1.305 4.607-6.165 10.353-21.907 11.557l-32.024 2.451z" fill="#111"/><path d="m667.345 539.152-11.813-8.583-16.276-11.826-100.372-72.925-16.276-11.826-11.813-8.583c-8.298-6.029-21.877-10.399-30.34-9.751l-134.835 10.317c-8.449.647-8.571 6.065-.273 12.094l156.552 113.741c8.311 6.039 21.891 10.398 30.34 9.751l134.835-10.317c8.463-.648 8.584-6.055.273-12.094" fill="#3658c1"/><path d="m530.536 562.627c-8.678 0-21.331-4.269-29.227-10.006l-156.552-113.741c-4.928-3.58-7.202-7.107-6.402-9.932.451-1.594 2.064-3.576 7.187-3.968l134.834-10.317c8.653-.665 22.552 3.799 31.004 9.939l156.552 113.741c4.934 3.585 7.212 7.112 6.413 9.933-.451 1.593-2.066 3.574-7.198 3.968l-134.834 10.317c-.57.044-1.165.065-1.778.065zm-48.326-146.031c-.581 0-1.141.021-1.681.062l-134.834 10.317c-3.054.233-5.028 1.151-5.415 2.519-.416 1.468.851 4.279 5.654 7.77l156.552 113.741c8.125 5.903 21.438 10.196 29.676 9.563l134.834-10.317c3.061-.234 5.039-1.152 5.426-2.519.415-1.465-.856-4.276-5.665-7.771l-156.552-113.741c-7.592-5.516-19.716-9.624-27.995-9.624z" fill="#111"/><path d="m535.638 486.107c-11.8-8.573-31.097-14.77-43.11-13.851-9.715.743-11.679 5.927-5.822 12.422l-23.933 1.831c-3.619.277-3.672 2.599-.117 5.181 3.555 2.583 9.38 4.455 12.999 4.178l23.933-1.831c11.435 6.068 25.947 10.001 35.662 9.258 12.014-.919 12.187-8.616.388-17.189" fill="#b0c3ff"/><path d="m532.793 504.386c-9.505 0-22.508-3.592-33.417-9.328l-23.645 1.809c-3.88.295-9.883-1.62-13.663-4.366-2.319-1.685-3.369-3.416-2.957-4.873.243-.857 1.062-1.921 3.585-2.114l22.012-1.685c-2.666-3.572-2.559-6.151-1.919-7.751.768-1.92 3.067-4.313 9.661-4.818 12.197-.933 31.835 5.364 43.774 14.039 6.854 4.979 10.031 9.831 8.946 13.661-.605 2.136-2.804 4.795-9.846 5.334-.812.063-1.658.093-2.534.093zm-33.205-11.348c.163 0 .324.04.469.116 11.656 6.186 25.772 9.864 35.118 9.145 4.596-.352 7.464-1.731 8.074-3.885.815-2.878-2.25-7.177-8.198-11.499-11.611-8.436-30.648-14.571-42.446-13.662-4.344.332-7.169 1.599-7.957 3.567-.729 1.823.266 4.377 2.801 7.188.255.283.328.688.186 1.041-.142.354-.472.597-.853.626l-23.933 1.831c-1.141.088-1.74.406-1.813.665-.104.369.397 1.395 2.208 2.711 3.331 2.419 8.983 4.258 12.335 3.989l23.933-1.831c.025-.002.051-.003.076-.003z" fill="#111"/></g><path d="m1202.981 505.753 309.546 223.922 10.278 48.057-333.021-234.147z" fill="#b0c3ff"/><path d="m1522.805 778.732c-.202 0-.403-.061-.575-.182l-333.022-234.147c-.366-.258-.516-.726-.369-1.147l13.197-37.831c.104-.299.343-.53.645-.625.301-.097.63-.042.886.144l309.546 223.921c.201.146.34.359.392.602l10.279 48.058c.086.402-.083.816-.426 1.043-.167.11-.36.166-.552.166zm-331.829-235.531 330.318 232.246-9.665-45.188-308.146-222.908-12.506 35.85z" fill="#111"/><path d="m1512.527 729.675 13.64-27.966-295.185-214.913-28.001 18.957z" fill="#fff"/><path d="m1512.527 730.675c-.208 0-.414-.065-.586-.189l-309.546-223.921c-.265-.191-.419-.5-.414-.826s.169-.63.439-.813l28.001-18.957c.35-.235.81-.227 1.149.02l295.185 214.912c.392.285.523.812.311 1.247l-13.64 27.966c-.129.266-.37.46-.656.531-.08.021-.162.03-.243.03zm-307.802-224.894 307.425 222.387 12.751-26.144-293.939-214.006z" fill="#111"/><path d="m1412.178 645.376 128.092-262.626 96.524 451.302-128.091 262.627z" fill="#fff"/><path d="m1508.703 1097.679c-.041 0-.081-.002-.122-.008-.424-.052-.768-.366-.857-.783l-96.525-451.303c-.046-.219-.019-.446.079-.647l128.092-262.627c.187-.384.6-.613 1.02-.554.423.052.768.366.857.783l96.525 451.303c.047.219.019.446-.079.647l-128.092 262.627c-.169.347-.52.562-.898.562zm-95.475-452.175 95.846 448.132 126.67-259.712-95.847-448.132-126.67 259.712z" fill="#111"/><path d="m1512.527 729.675 13.64-27.966 10.278 48.057-13.64 27.966z" fill="#fff"/><path d="m1522.806 778.732c-.041 0-.081-.002-.122-.008-.423-.052-.768-.366-.857-.783l-10.279-48.058c-.046-.219-.019-.446.079-.647l13.64-27.966c.187-.384.6-.613 1.02-.554.423.052.768.366.857.783l10.278 48.058c.046.219.019.446-.079.647l-13.64 27.966c-.169.347-.52.562-.898.562zm-9.229-48.93 9.6 44.887 12.218-25.051-9.6-44.887z" fill="#111"/><path d="m1909.487 625.424 128.091-262.627 96.525 451.303-128.091 262.626z" fill="#3658c1"/><path d="m2006.011 1077.726c-.04 0-.08-.002-.121-.008-.424-.052-.768-.366-.856-.783l-96.524-451.303c-.047-.219-.02-.446.079-.647l128.091-262.627c.188-.383.59-.615 1.02-.554.424.052.768.366.856.783l96.525 451.303c.047.219.02.446-.079.647l-128.092 262.627c-.169.347-.52.562-.898.562zm-95.475-452.175 95.847 448.132 126.67-259.712-95.848-448.132z" fill="#111"/><path d="m1412.177 645.374 497.31-19.95 96.525 451.302-497.31 19.951z" fill="#b0c3ff"/><path d="m1508.701 1097.677c-.47 0-.878-.328-.978-.791l-96.525-451.303c-.062-.288.007-.589.188-.822.181-.232.455-.374.75-.386l497.31-19.95c.517-.035.916.315 1.018.79l96.524 451.303c.062.288-.007.589-.188.822-.181.232-.455.374-.75.386l-497.31 19.95c-.014 0-.027 0-.041 0zm-95.298-451.352 96.101 449.318 495.281-19.868-96.1-449.318z" fill="#111"/><path d="m1740.708 884.021-10.278-48.058-52.957 2.125 10.279 48.057z" fill="#fff"/><path d="m1687.751 887.145c-.47 0-.878-.328-.978-.791l-10.278-48.058c-.062-.288.007-.589.188-.822.181-.232.455-.374.75-.386l52.957-2.124c.475-.051.916.313 1.018.79l10.278 48.057c.062.288-.007.589-.188.822-.181.232-.455.374-.75.386l-52.957 2.125c-.014 0-.027 0-.041 0zm-9.052-48.106 9.854 46.073 50.929-2.043-9.854-46.072z" fill="#111"/><path d="m1540.269 382.747 497.309-19.95-128.091 262.627-497.31 19.95z" fill="#fff"/><path d="m1412.177 646.374c-.337 0-.652-.17-.837-.453-.192-.295-.216-.669-.062-.985l128.092-262.627c.162-.33.491-.546.859-.561l497.309-19.95c.387-.031.686.158.877.452.192.295.216.669.062.985l-128.091 262.627c-.161.331-.491.546-.858.561l-497.31 19.95c-.013 0-.027 0-.04 0zm128.729-262.651-127.096 260.585 495.041-19.859 127.095-260.585z" fill="#111"/><path d="m1672.915 500.796-237.653 97.251-23.084 47.329 497.314-19.95 23.084-47.33-92.154-51.604-87.248 28.74z" fill="#3658c1"/><path d="m1412.178 646.377c-.337 0-.652-.17-.837-.453-.192-.295-.216-.669-.062-.985l23.084-47.33c.108-.221.293-.394.52-.487l237.653-97.251c.311-.127.663-.09.94.099l79.852 54.16 86.781-28.587c.267-.086.557-.06.802.078l92.153 51.604c.463.259.643.834.41 1.311l-23.084 47.329c-.161.331-.491.546-.858.561l-497.314 19.951c-.013 0-.027 0-.04 0zm23.815-47.549-22.183 45.482 495.044-19.86 22.407-45.942-90.945-50.928-86.83 28.603c-.293.097-.617.053-.875-.123l-79.815-54.135-236.804 96.903z" fill="#111"/><path d="m1878.604 416.933c-22.916.919-46.287 11.479-52.189 23.581-5.902 12.101 7.895 21.17 30.811 20.25s46.286-11.479 52.188-23.58c5.902-12.102-7.894-21.17-30.81-20.251" fill="#3658c1"/><path d="m1854.038 461.829c-13.657 0-24.066-3.625-28.177-9.919-2.291-3.508-2.41-7.601-.345-11.835 6.039-12.381 29.835-23.21 53.048-24.141 15.236-.612 26.976 3.071 31.404 9.853 2.291 3.508 2.41 7.601.345 11.836-6.038 12.38-29.835 23.209-53.047 24.141-1.095.044-2.171.065-3.229.065zm24.606-43.896c-22.554.904-45.581 11.231-51.33 23.02-1.765 3.618-1.69 6.937.221 9.864 3.98 6.094 15.338 9.512 29.651 8.949 22.554-.905 45.58-11.232 51.33-23.02 1.765-3.619 1.689-6.938-.222-9.865-3.98-6.094-15.338-9.53-29.65-8.948zm-.04-.999h.01z" fill="#111"/><path d="m1381.171 1102.565 349.259-266.602 10.278 48.058-366.211 277.165z" fill="#3658c1"/><path d="m1374.497 1162.185c-.17 0-.341-.043-.495-.131-.348-.198-.544-.585-.499-.982l6.674-58.62c.031-.271.17-.517.387-.682l349.259-266.602c.273-.206.633-.262.954-.143.321.118.56.394.631.729l10.278 48.057c.081.38-.065.772-.375 1.007l-366.211 277.164c-.178.135-.39.203-.604.203zm7.62-59.084-6.362 55.878 363.843-275.372-9.815-45.891z" fill="#111"/><path d="m1730.43 835.963-349.259 266.602-59.139-14.09 355.441-250.387z" fill="#fff"/><path d="m1381.171 1103.565c-.077 0-.155-.009-.232-.027l-59.139-14.09c-.382-.091-.676-.397-.75-.784-.074-.386.084-.779.406-1.006l355.441-250.388c.157-.111.343-.174.536-.182l52.957-2.124c.418-.028.833.249.981.66.148.41.013.869-.334 1.134l-349.259 266.602c-.176.135-.39.205-.607.205zm-56.751-15.549 56.521 13.466 346.365-264.393-49.498 1.985-353.388 248.941z" fill="#111"/><path d="m952.133 1191.632-329.783-299.409 19.377-52.186 317.081 292.974z" fill="#b0c3ff"/><path d="m952.134 1192.633c-.244 0-.485-.09-.672-.26l-329.784-299.409c-.302-.274-.407-.705-.265-1.088l19.378-52.187c.116-.313.38-.547.705-.625.323-.078.666.011.911.238l317.081 292.975c.234.216.351.531.315.848l-6.674 58.621c-.042.373-.29.69-.641.822-.115.043-.234.064-.353.064zm-328.611-300.695 327.838 297.643 6.396-56.178-315.612-291.617-18.623 50.152z" fill="#111"/><path d="m980.964 1113.062-22.156 19.949-317.081-292.974 40.246-3.08z" fill="#fff"/><path d="m958.808 1134.011c-.244 0-.487-.089-.679-.266l-317.081-292.975c-.292-.27-.396-.688-.266-1.063.13-.376.471-.639.868-.669l40.246-3.08c.275-.024.551.073.754.263l298.991 276.105c.207.19.324.46.322.74-.002.281-.122.549-.331.737l-22.156 19.949c-.19.171-.43.257-.669.257zm-314.717-293.152 314.726 290.799 20.664-18.605-297.865-275.065-37.524 2.872z" fill="#111"/><path d="m1101.923 783.426 555.371 132.315-62.678 550.487-555.371-132.316z" fill="#fff"/><path d="m1594.616 1467.227c-.078 0-.155-.009-.232-.027l-555.371-132.315c-.492-.117-.819-.583-.762-1.086l62.678-550.486c.032-.284.185-.541.419-.705.235-.164.528-.222.806-.154l555.371 132.315c.492.117.819.583.762 1.086l-62.678 550.486c-.032.284-.185.541-.419.705-.17.119-.371.182-.574.182zm-554.277-134.083 553.412 131.849 62.45-548.484-553.412-131.849z" fill="#111"/><path d="m1374.497 1161.186 6.674-58.621-59.139-14.09-6.675 58.621z" fill="#fff"/><path d="m1374.497 1162.185c-.078 0-.155-.009-.232-.027l-59.14-14.09c-.492-.117-.819-.583-.762-1.086l6.675-58.62c.032-.284.185-.541.419-.705.235-.164.529-.221.806-.154l59.139 14.09c.492.117.819.583.762 1.086l-6.674 58.62c-.032.284-.185.541-.419.705-.169.119-.371.182-.574.182zm-58.046-15.857 57.18 13.623 6.446-56.618-57.18-13.623-6.447 56.618z" fill="#111"/><path d="m1449.228 1103.085 208.066-187.344-62.678 550.487-208.066 187.343z" fill="#3658c1"/><path d="m1386.55 1654.571c-.156 0-.313-.036-.458-.111-.369-.189-.583-.589-.536-1.002l62.678-550.486c.028-.242.143-.467.325-.63l208.066-187.344c.309-.278.758-.338 1.127-.146.369.189.583.589.536 1.002l-62.678 550.486c-.028.242-.143.467-.325.63l-208.066 187.344c-.188.169-.427.257-.669.257zm63.628-550.997-62.336 547.488 205.824-185.324 62.336-547.488z" fill="#111"/><path d="m893.857 970.769 208.066-187.343-62.678 550.486-208.066 187.343z" fill="#fff"/><path d="m831.179 1522.256c-.156 0-.313-.036-.458-.111-.369-.189-.583-.589-.536-1.002l62.678-550.486c.028-.242.143-.467.325-.63l208.066-187.344c.309-.277.757-.338 1.127-.146.369.189.583.589.536 1.002l-62.678 550.486c-.028.242-.143.467-.325.63l-208.066 187.344c-.188.169-.427.257-.669.257zm63.628-550.997-62.336 547.488 205.824-185.324 62.336-547.488z" fill="#111"/><path d="m958.808 1133.011 22.156-19.949-6.675 58.621-22.156 19.949z" fill="#fff"/><path d="m952.134 1192.633c-.156 0-.313-.036-.458-.111-.369-.189-.583-.589-.536-1.002l6.674-58.621c.028-.242.143-.467.325-.63l22.156-19.949c.308-.278.757-.337 1.127-.146.369.189.583.589.536 1.002l-6.675 58.62c-.028.242-.143.467-.325.63l-22.156 19.95c-.188.169-.427.257-.669.257zm7.625-59.132-6.333 55.623 19.913-17.931 6.333-55.622-19.914 17.93z" fill="#111"/><path d="m893.857 970.769 555.371 132.316-62.678 550.486-555.371-132.316z" fill="#b0c3ff"/><path d="m1386.55 1654.571c-.078 0-.155-.009-.232-.027l-555.371-132.315c-.492-.117-.819-.583-.762-1.086l62.678-550.486c.032-.284.185-.541.419-.705.235-.164.53-.221.806-.154l555.371 132.315c.492.117.819.583.762 1.086l-62.678 550.486c-.032.284-.185.541-.419.705-.17.119-.371.182-.574.182zm-554.277-134.083 553.412 131.849 62.45-548.484-553.412-131.849z" fill="#111"/><path d="m1192.267 1445.818c-7.718-1.839-14.679 2.853-15.55 10.503-.786 6.901 3.656 13.837 10.199 16.48.709.286 1.443.523 2.199.703.755.18 1.504.296 2.239.355 6.783.533 12.528-3.976 13.314-10.878.871-7.65-4.683-15.323-12.4-17.162" fill="#fff"/><path d="m1192.419 1474.9c-.378 0-.758-.015-1.143-.045-.8-.063-1.605-.191-2.393-.379-.792-.189-1.579-.44-2.342-.748-7.098-2.867-11.647-10.235-10.818-17.521.444-3.903 2.38-7.24 5.451-9.395 3.202-2.247 7.224-2.945 11.325-1.968 8.181 1.949 14.086 10.135 13.162 18.248-.786 6.903-6.383 11.807-13.242 11.807zm-3.5-28.484c-2.408 0-4.68.691-6.595 2.035-2.596 1.82-4.234 4.656-4.613 7.983-.718 6.306 3.4 12.943 9.58 15.439.67.27 1.363.491 2.057.657.687.164 1.389.274 2.086.33 6.37.502 11.524-3.702 12.24-9.994.813-7.142-4.408-14.354-11.639-16.076-1.052-.251-2.097-.375-3.117-.375z" fill="#111"/><path d="m1133.037 1284.433c-.755-.18-1.503-.296-2.239-.355-6.782-.533-12.528 3.977-13.314 10.878-.871 7.65 4.68 15.344 12.398 17.182 7.718 1.839 14.682-2.873 15.553-10.523.786-6.902-3.655-13.837-10.199-16.48-.709-.286-1.445-.523-2.199-.703" fill="#fff"/><path d="m1133.229 1313.541c-1.174 0-2.372-.143-3.578-.43-8.182-1.949-14.085-10.145-13.16-18.269.83-7.284 7.024-12.327 14.386-11.761.798.063 1.604.19 2.394.379.791.188 1.578.439 2.341.747 7.098 2.867 11.647 10.235 10.818 17.521-.445 3.91-2.385 7.253-5.463 9.412-2.259 1.585-4.925 2.4-7.737 2.4zm-3.533-28.506c-5.898 0-10.541 4.082-11.218 10.034-.814 7.152 4.406 14.374 11.637 16.097 3.528.841 6.975.249 9.702-1.663 2.603-1.826 4.245-4.667 4.625-8.001.718-6.306-3.4-12.943-9.579-15.439-.67-.27-1.362-.491-2.057-.656h-.001c-.688-.165-1.389-.275-2.084-.33-.345-.027-.687-.041-1.023-.041z" fill="#111"/><path d="m1002.391 1279.545c-7.718-1.839-14.679 2.854-15.55 10.503-.786 6.902 3.656 13.837 10.199 16.48 1.346.582 2.83.927 4.439 1.057 6.783.534 12.528-3.976 13.314-10.878.871-7.649-4.683-15.323-12.4-17.162" fill="#fff"/><path d="m1002.544 1308.628c-.378 0-.76-.015-1.145-.045-1.737-.142-3.337-.523-4.757-1.137-7.076-2.857-11.625-10.226-10.796-17.511.444-3.903 2.38-7.239 5.451-9.394 3.202-2.247 7.223-2.944 11.325-1.969 8.181 1.949 14.086 10.136 13.162 18.248-.786 6.904-6.382 11.807-13.241 11.807zm-3.501-28.483c-2.409 0-4.68.69-6.596 2.034-2.596 1.821-4.234 4.656-4.612 7.983-.718 6.306 3.4 12.943 9.58 15.439 1.241.535 2.628.864 4.145.987 6.376.506 11.522-3.703 12.239-9.994.813-7.142-4.408-14.354-11.639-16.076-1.052-.251-2.097-.374-3.116-.374z" fill="#111"/><path d="m1289.218 1262.367c-7.718-1.839-14.682 2.873-15.553 10.523-.786 6.901 3.656 13.837 10.199 16.48.711.286 1.443.523 2.199.703s1.504.296 2.239.355c6.783.533 12.528-3.976 13.314-10.878.871-7.65-4.68-15.344-12.398-17.182" fill="#fff"/><g fill="#111"><path d="m1289.367 1291.469c-.377 0-.758-.015-1.143-.045-.8-.063-1.605-.191-2.393-.379-.789-.188-1.576-.44-2.341-.748-7.099-2.866-11.648-10.234-10.819-17.521.445-3.91 2.386-7.253 5.463-9.412 3.202-2.246 7.22-2.945 11.315-1.971 8.181 1.949 14.084 10.145 13.16 18.269-.786 6.903-6.384 11.807-13.243 11.807zm-3.488-28.503c-2.407 0-4.678.691-6.595 2.036-2.603 1.825-4.246 4.667-4.625 8.001-.718 6.307 3.4 12.944 9.58 15.438.672.271 1.365.493 2.057.658.687.164 1.389.274 2.086.33 6.367.5 11.524-3.702 12.24-9.994.814-7.152-4.405-14.374-11.636-16.097-1.048-.25-2.09-.373-3.107-.373z"/><path d="m1291.441 1631.367c-.037 0-.075-.002-.113-.006-.549-.063-.943-.558-.881-1.106l27.578-243.83-41.788-9.956c-.491-.117-.818-.582-.762-1.084l9.596-85.423c.062-.549.561-.94 1.105-.883.549.063.944.557.882 1.105l-9.497 84.544 41.789 9.956c.492.117.818.583.762 1.085l-27.677 244.71c-.058.511-.491.888-.993.888z"/><path d="m1133.018 1285.036c-.038 0-.076-.002-.115-.007-.549-.063-.943-.558-.88-1.106l28.474-250.08c.063-.549.554-.946 1.107-.88.548.063.943.558.88 1.106l-28.474 250.08c-.058.51-.491.887-.992.887z"/><path d="m1174.463 1603.717c-.038 0-.076-.002-.114-.007-.549-.062-.943-.557-.881-1.105l14.653-129.213c.063-.55.561-.95 1.106-.881.549.062.943.557.881 1.105l-14.653 129.213c-.058.511-.491.888-.992.888z"/><path d="m926.568 1544.729c-.038 0-.076-.002-.114-.006-.549-.063-.943-.558-.881-1.106l20.036-177.081c.032-.284.185-.542.419-.706.234-.165.527-.224.807-.154l43.718 10.416 7.8-68.936c.062-.549.562-.931 1.106-.882.549.063.943.558.881 1.106l-7.927 70.058c-.032.284-.185.542-.419.706s-.528.221-.807.154l-43.718-10.416-19.909 175.959c-.058.511-.491.888-.992.888z"/></g><path d="m1101.923 783.426 555.371 132.315-208.066 187.344-555.371-132.316z" fill="#fff"/><path d="m1449.228 1104.085c-.077 0-.155-.009-.232-.027l-555.371-132.315c-.361-.086-.646-.365-.737-.726s.024-.741.3-.99l208.066-187.344c.244-.22.58-.307.901-.229l555.371 132.315c.361.086.646.365.737.726s-.024.741-.3.99l-208.066 187.344c-.186.167-.425.257-.669.257zm-553.287-133.847 553.008 131.752 206.261-185.718-553.008-131.752z" fill="#111"/><path d="m1267.539 870.954-100.83 7.261-96.161 86.584 286.406 68.235 123.635-111.321z" fill="#3658c1"/><path d="m1356.954 1034.034c-.077 0-.155-.009-.232-.027l-286.406-68.235c-.361-.086-.646-.365-.737-.726s.024-.741.3-.99l96.161-86.583c.165-.148.375-.238.597-.254l100.83-7.262c.102-.008.205 0 .304.024l213.05 50.759c.361.086.646.365.737.726s-.024.741-.3.99l-123.635 111.321c-.186.167-.424.257-.669.257zm-284.321-69.767 284.042 67.672 121.83-109.695-211.047-50.281-100.334 7.226-94.491 85.079z" fill="#111"/><path d="m1267.539 870.954-100.83 7.261 73.356 17.477z" fill="#b0c3ff"/><path d="m1240.065 896.692c-.077 0-.155-.009-.232-.027l-73.356-17.477c-.48-.114-.805-.562-.765-1.054s.433-.881.925-.916l100.831-7.262c.422-.031.825.212.992.605s.067.849-.251 1.135l-27.475 24.738c-.186.167-.424.257-.669.257zm-66.811-17.945 66.532 15.851 24.919-22.437z" fill="#111"/><path d="m1373.576 955.188c-.077 0-.155-.009-.233-.027l-174.202-41.504c-.537-.128-.869-.667-.741-1.204.128-.538.666-.868 1.205-.741l174.202 41.504c.537.128.869.667.741 1.204-.109.46-.52.769-.972.769z" fill="#111"/><path d="m1347.824 978.375c-.077 0-.155-.009-.233-.027l-174.202-41.503c-.537-.128-.869-.667-.741-1.204.128-.538.667-.869 1.205-.741l174.202 41.503c.537.128.869.667.741 1.204-.109.46-.52.769-.972.769z" fill="#111"/><path d="m1322.072 1001.561c-.077 0-.155-.009-.233-.027l-174.202-41.503c-.537-.128-.869-.667-.741-1.204.128-.538.666-.869 1.205-.741l174.202 41.503c.537.128.869.667.741 1.204-.109.46-.52.769-.972.769z" fill="#111"/></svg>