<svg xmlns="http://www.w3.org/2000/svg" xmlns:ns1="http://www.w3.org/1999/xlink" fill="none" viewBox="0 0 2000 2000" width="2000" height="2000"><defs><clipPath id="assetClipPath_DeULieov"><path d="m0 0 h 655.132 v 548.035 h -655.132 v -548.035 z" id="path_3Ib60pv7" fill="#ffffff" /></clipPath><clipPath id="assetClipPath_JvZCCio-"><path d="m0 0 h 602.227 v 670.035 h -602.227 v -670.035 z" id="path_zkhFa-f5" fill="#ffffff" /></clipPath><clipPath id="assetClipPath_v_4W7f7R"><path d="m0 0 h 229.468 v 221.828 h -229.468 v -221.828 z" id="path_LEJxgnkC" fill="#ffffff" /></clipPath><clipPath id="assetClipPath_r3ZIK1D9"><path d="m0 0 h 810.638 v 671.676 h -810.638 v -671.676 z" id="path_s4OheIID" fill="#ffffff" /></clipPath></defs><g transform="translate(499 323) rotate(25.04891636002505 549 460)" data-asset-index="0"><g clip-path="url(#assetClipPath_DeULieov)" transform="scale(1.675998119462948 1.6787248989571835)" data-asset-index="0"><linearGradient id="linearGradient_Yr5T3L1p" gradientUnits="userSpaceOnUse" x1="87.934" x2="545.065" y1="108.689" y2="408.905"><stop offset=".097" stop-color="#3658C1" /><stop offset="1" stop-color="#111111" /></linearGradient><path d="m166.722 22.555 171.841-21.555-53.677 68.353c-9.167 11.672-27.376 13.956-40.618 5.095z" fill="#B0C3FF" id="NzTxo9wFbvntEouuC7NdR" /><path d="m262.12 80.838a33.126 33.126 0 0 1 -18.408-5.559l-77.546-51.893a1 1 0 0 1 .432-1.823l171.841-21.555a1 1 0 0 1 .911 1.61l-53.678 68.352c-5.59 7.119-14.435 10.868-23.552 10.868zm-92.615-57.624 75.319 50.4c12.811 8.575 30.429 6.386 39.276-4.879l52.174-66.435z" fill="#111111" id="BpJ_Pr4aKZcpjhENpKDH9" /><path d="m166.722 22.555 77.546 51.893c13.242 8.861 31.451 6.577 40.618-5.095l53.677-68.353 295.789 197.939c20.843 13.947 26.044 40.151 11.616 58.522l-196.757 250.55c-14.428 18.372-43.023 21.959-63.865 8.011l-359.597-240.638c-20.842-13.947-26.044-40.151-11.616-58.522z" fill="#3658C1" id="VUDVpjGHM8JztsVh8gb1m" /><path d="m413.419 525.5a51.533 51.533 0 0 1 -28.629-8.647l-359.598-240.638c-10.667-7.138-17.857-17.984-19.729-29.757a38.619 38.619 0 0 1 7.883-30.214l152.59-194.307a1 1 0 0 1 1.342-.213l77.546 51.893c12.811 8.572 30.43 6.383 39.275-4.882l53.677-68.353a1 1 0 0 1 1.343-.213l295.789 197.939c10.668 7.138 17.859 17.984 19.731 29.757a38.616 38.616 0 0 1 -7.884 30.214l-196.755 250.55c-8.683 11.053-22.418 16.871-36.581 16.871zm-246.483-501.6-152.017 193.579a36.638 36.638 0 0 0 -7.481 28.666c1.785 11.224 8.661 21.579 18.867 28.408l359.595 240.638c20.384 13.642 48.433 10.144 62.522-7.8l196.76-250.547a36.642 36.642 0 0 0 7.482-28.666c-1.785-11.224-8.664-21.578-18.864-28.408l-295.023-197.424-53.1 67.624c-9.478 12.068-28.3 14.45-41.96 5.309z" fill="#111111" id="xqqMENBDiV19ZrXinPA8Y" /><path d="m645.968 257.461-196.757 250.55c-14.427 18.372-43.023 21.959-63.865 8.011l-359.597-240.638c-15.513-10.384-22.361-27.552-18.9-43.23l-4.97 22.511c-3.461 15.678 3.388 32.849 18.9 43.23l359.6 240.638c20.843 13.947 49.438 10.36 63.865-8.012l196.756-250.549a37.917 37.917 0 0 0 7.283-15.294l4.97-22.51a37.923 37.923 0 0 1 -7.285 15.293z" fill="url(#linearGradient_Yr5T3L1p)" id="uBxCJIlPKDiVPg9bG8loR" /><path d="m408.45 548.011a51.517 51.517 0 0 1 -28.63-8.647l-359.597-240.638c-15.399-10.305-22.983-27.685-19.323-44.277l4.97-22.511a1 1 0 1 1 1.953.432c-3.485 15.781 3.769 32.339 18.479 42.183l359.598 240.638c20.385 13.642 48.432 10.145 62.522-7.8l196.758-250.55a36.8 36.8 0 0 0 7.093-14.891 1 1 0 0 1 1.954.431l-4.97 22.51a38.793 38.793 0 0 1 -7.474 15.695l-196.755 250.553c-8.681 11.053-22.416 16.872-36.578 16.872zm-403.274-303.641-2.32 10.51c-3.484 15.782 3.77 32.34 18.479 42.184l359.597 240.636c20.385 13.641 48.433 10.143 62.523-7.8l196.757-250.546a36.8 36.8 0 0 0 7.094-14.892l2.332-10.564a40.615 40.615 0 0 1 -2.883 4.181l-.787-.618.787.618-196.755 250.55c-14.722 18.746-43.974 22.435-65.208 8.224l-359.6-240.638c-11.562-7.737-18.717-19.46-20.016-31.845z" fill="#111111" id="gh6qCumsN8Yjjy3guP0Y4" /><path d="m166.581 222.427 97.448-124.09" fill="#FFFFFF" id="UtnX0Ud6PC_A8em8Z1_pL" /><path d="m166.58 223.427a1 1 0 0 1 -.786-1.618l97.448-124.09a1 1 0 1 1 1.573 1.235l-97.448 124.09a1 1 0 0 1 -.787.383z" fill="#111111" id="HgU5ljb8bj_RU7hIFMp5" /><path d="m201.019 309.321 163.184-207.797" fill="#FFFFFF" id="kSgz15DFs0O0BGSQkOARm" /><path d="m201.019 310.321a1 1 0 0 1 -.786-1.618l163.184-207.8a1 1 0 1 1 1.573 1.235l-163.184 207.8a1 1 0 0 1 -.787.383z" fill="#111111" id="lrTWGXSfB1C2Q-meNDlY7" /><path d="m282.116 363.59 163.184-207.797" fill="#FFFFFF" id="xiUZZYj2m0udwt9OeuBN" /><path d="m282.116 364.59a.987.987 0 0 1 -.617-.214 1 1 0 0 1 -.169-1.4l163.183-207.8a1 1 0 1 1 1.573 1.235l-163.186 207.797a1 1 0 0 1 -.784.382z" fill="#111111" id="wrg3qd3wz9nXjGTU9Yi0l" /><path d="m363.187 417.842 112.815-143.657" fill="#FFFFFF" id="nPRT2HRmmbKbTTzLma8R" /><path d="m363.187 418.842a1 1 0 0 1 -.786-1.618l112.814-143.657a1 1 0 0 1 1.574 1.235l-112.815 143.658a1 1 0 0 1 -.787.382z" fill="#111111" id="ifzSUHoOkdv-Xr3Po2aw_" /></g></g><g transform="translate(1216 883) rotate(0.12138827049027184 300 334)" data-asset-index="1"><g clip-path="url(#assetClipPath_JvZCCio-)" transform="scale(0.9963020588582047 0.9969628452245033)" data-asset-index="1"><defs>
    <linearGradient id="linearGradient__w3uxKGT" data-name="Безымянный градиент 4" x1="994.283" y1="733.96" x2="752.379" y2="371.876" gradientTransform="translate(-686.715 -45.878) rotate(-6.258)" gradientUnits="userSpaceOnUse">
      <stop offset=".071" stop-color="#B0C3FF" />
      <stop offset=".728" stop-color="#3658C1" />
      <stop offset="1" stop-color="#3658C1" />
    </linearGradient>
    <linearGradient id="linearGradient_uvaLO7F0" data-name="Безымянный градиент 4" x1="909.43" y1="147.742" x2="1037.315" y2="839.556" ns1:href="#linearGradient__w3uxKGT" />
    <linearGradient id="linearGradient_6UcbKkTy" data-name="Безымянный градиент 4" x1="989.76" y1="132.893" x2="1117.645" y2="824.706" ns1:href="#linearGradient__w3uxKGT" />
    <linearGradient id="linearGradient_3OmN5DzV" data-name="Безымянный градиент 4" x1="1033.375" y1="124.831" x2="1161.261" y2="816.644" ns1:href="#linearGradient__w3uxKGT" />
    <linearGradient id="linearGradient_9YoF2aZX" data-name="Безымянный градиент 4" x1="1151.19" y1="103.052" x2="1279.075" y2="794.865" ns1:href="#linearGradient__w3uxKGT" />
    <linearGradient id="linearGradient_rOCMwYWS" data-name="Новый образец градиента 2" x1="858.75" y1="491.893" x2="1097.756" y2="491.893" gradientTransform="translate(-686.715 -45.878) rotate(-6.258)" gradientUnits="userSpaceOnUse">
      <stop offset=".097" stop-color="#3658C1" />
      <stop offset="1" stop-color="#111111" />
    </linearGradient>
  </defs><g id="MQW-Ed9lzBGuUceUu3oFP">
    <g id="fgi6740UlHfFmL0_S_2M">
      <path d="M81.507,486.569l40.755,17.772c-4.386,14.401-8.762,28.802-13.149,43.203-.32.935-.796,2.165-1.197,3.064-.203.478-.547,1.093-.808,1.544-1.35,2.281-2.655,3.646-3.157,4.135-.694.665-1.668,1.505-2.424,2.11-.428.347-1.05.76-1.542,1.036q-1.578.906-3.139,1.566c-.403.177-.886.33-1.38.485-.042.016-.085.032-.139.049-.334.092-.668.195-.97.273l-2.02.522c-.955.205-2.241.435-3.206.551-.582.064-1.368.083-1.957.081-2.437-.033-4.315-.449-5.463-.779-.839-.252-1.936-.632-2.73-.989-.912-.411-2.081-1.049-2.927-1.568-.679-.414-2.607-1.791-3.933-3.246-.907-.978-2.259-2.463-3.637-5.101-.461-.86-.864-1.805-1.229-2.798-.385-1.08-.446-1.329-.82-2.921-.063-.271-.333-1.719-.423-3.042-.087-1.201-.074-1.381.002-3.122.044-1.016.304-2.9.9-4.865,4.868-15.987,9.725-31.973,14.593-47.961Z" fill="#FFFFFF" id="lFwXK6MHCbViMsscXyjHM" />
      <path d="M87.24,564.46h-.07c-2.066-.028-4.037-.309-5.872-.837-.417-.125-1.805-.556-2.932-1.063-.902-.407-2.117-1.057-3.095-1.657-.615-.375-2.723-1.83-4.258-3.514-.875-.944-2.354-2.538-3.858-5.417-.457-.853-.887-1.831-1.308-2.976-.412-1.156-.487-1.46-.872-3.094-.086-.37-.365-1.89-.459-3.284-.089-1.238-.077-1.522-.008-3.103l.008-.186c.05-1.16.329-3.144.962-5.234l14.594-47.963c.125-.409.418-.746.807-.925.389-.179.835-.184,1.228-.013l40.755,17.772c.698.304,1.057,1.083.835,1.812l-13.148,43.203c-.369,1.08-.858,2.332-1.263,3.239-.174.409-.465.969-.88,1.685-1.385,2.342-2.73,3.797-3.409,4.458-.692.663-1.683,1.526-2.533,2.206-.468.379-1.155.841-1.744,1.172-1.614.927-1.676.958-3.29,1.64-.44.194-.949.358-1.517.535,0,0,.001,0,.001,0,.005,0-.056.022-.132.046l-.439.126c-.211.061-.418.12-.612.17l-2.019.521c-1.165.251-2.476.477-3.4.588-.747.082-1.652.092-2.072.092ZM82.452,488.618l-14.103,46.35c-.517,1.706-.792,3.486-.836,4.493l-.008.187c-.068,1.564-.074,1.692.003,2.762.081,1.195.331,2.567.388,2.81.363,1.541.409,1.74.772,2.757.367.999.741,1.851,1.138,2.593,1.325,2.536,2.633,3.946,3.414,4.789,1.201,1.316,2.985,2.601,3.616,2.986.869.533,1.978,1.127,2.762,1.48.763.343,1.815.7,2.546.921,1.539.442,3.292.691,5.05.715.675.002,1.341-.025,1.773-.073.826-.1,2.031-.308,3.055-.527l1.96-.507c.168-.043.346-.095.527-.147l.419-.119c.571-.184.995-.32,1.313-.46q1.498-.633,2.997-1.494c.452-.254,1-.622,1.344-.901.782-.625,1.716-1.438,2.331-2.027.452-.44,1.658-1.709,2.904-3.815.341-.588.584-1.052.719-1.367.376-.843.837-2.024,1.158-2.963l12.744-41.876-37.986-16.565Z" fill="#111111" id="zQXb4AflJxzdt66bmT383" />
    </g>
    <g id="oMIVA-Tx1K88JZh916gm8">
      <path d="M161.584,521.505l40.768,17.793c-4.411,14.482-8.822,28.964-13.222,43.444-.331.936-.797,2.154-1.197,3.064-.203.478-.547,1.093-.808,1.544-1.351,2.27-2.655,3.646-3.158,4.124-.692.676-1.667,1.516-2.424,2.11-.439.348-1.061.761-1.541,1.047q-1.578.906-3.139,1.566c-.404.166-.897.332-1.38.485-.043.016-.087.02-.14.038-.333.103-.679.196-.969.284l-2.032.512c-.955.205-2.23.433-3.195.55-.592.076-1.368.094-1.957.081-2.437-.033-4.325-.437-5.463-.779-.837-.241-1.945-.62-2.741-.988-.911-.4-2.071-1.05-2.927-1.568-.678-.403-2.607-1.792-3.933-3.246-.896-.979-2.259-2.463-3.647-5.088-.31-.599-.772-1.571-1.219-2.81-.385-1.08-.445-1.329-.82-2.921-.063-.271-.333-1.719-.434-3.041-.076-1.202-.074-1.381.002-3.122.044-1.016.315-2.901.911-4.866.987-3.263,2.31-7.608,3.297-10.86.499-1.632,1.161-3.805,1.659-5.437.986-3.263,2.321-7.609,3.307-10.872.499-1.632,1.159-3.816,1.658-5.448.997-3.264,2.329-7.632,3.325-10.907.425-1.391.963-3.172,1.419-4.688Z" fill="#FFFFFF" id="q4YQPnYTnC4Ov493glcUz" />
      <path d="M167.539,599.65c-.169,0-.303-.002-.382-.004-2.646-.036-4.649-.478-5.862-.842-.812-.234-2.024-.64-2.939-1.063-1.151-.505-2.533-1.319-3.073-1.645-.719-.428-2.804-1.916-4.266-3.519-.961-1.051-2.395-2.617-3.864-5.398-.336-.65-.83-1.687-1.304-3.002-.409-1.148-.484-1.452-.869-3.086-.072-.308-.36-1.841-.469-3.271-.083-1.307-.078-1.543-.001-3.3.048-1.091.332-3.116.974-5.236.693-2.294,1.554-5.124,2.347-7.733l2.611-8.568c.494-1.635,1.078-3.548,1.661-5.459.577-1.893,1.154-3.785,1.645-5.409l1.659-5.453c.998-3.263,2.329-7.631,3.325-10.906.425-1.391.962-3.17,1.418-4.684.124-.411.417-.749.806-.929.39-.18.836-.185,1.23-.013l40.768,17.793c.698.304,1.057,1.083.835,1.812-4.411,14.481-8.822,28.963-13.222,43.443-.327.928-.812,2.214-1.259,3.231-.181.427-.473.986-.885,1.695-1.536,2.581-3.008,4.064-3.423,4.458-.678.662-1.677,1.532-2.53,2.201-.534.423-1.229.875-1.699,1.155-1.647.946-1.709.977-3.323,1.66-.394.162-.871.33-1.512.533-.038.012-.145.041-.184.05-.166.052-.368.11-.562.166l-.383.112-2.099.53c-1.159.249-2.465.474-3.38.584-.625.081-1.335.096-1.789.096ZM162.533,523.556c-.323,1.07-.653,2.158-.934,3.076-.996,3.274-2.328,7.643-3.325,10.907l-1.658,5.448c-.49,1.622-1.068,3.516-1.646,5.412-.583,1.909-1.165,3.819-1.66,5.457l-2.611,8.568c-.793,2.607-1.653,5.435-2.346,7.729-.526,1.736-.805,3.509-.849,4.498-.074,1.722-.075,1.833-.003,2.961.091,1.199.341,2.557.397,2.794.363,1.543.41,1.741.772,2.76.417,1.156.85,2.066,1.139,2.625,1.284,2.429,2.561,3.825,3.406,4.749,1.171,1.284,2.954,2.596,3.609,2.986,1.027.621,2.057,1.173,2.763,1.483.654.302,1.646.658,2.553.92.859.258,2.635.688,5.068.72.505.01,1.219-.002,1.746-.07.844-.102,2.046-.31,3.072-.529l2.335-.604c.175-.05.358-.103.538-.158.031-.01.12-.033.164-.044.463-.149.881-.289,1.227-.432q1.465-.62,2.964-1.48c.458-.273,1.012-.649,1.356-.922.769-.604,1.694-1.408,2.308-2.007.261-.248,1.552-1.523,2.917-3.817.421-.724.623-1.143.717-1.364.421-.958.876-2.164,1.164-2.977,4.25-13.993,8.531-28.048,12.812-42.104l-37.995-16.583ZM175.061,595.243c-.028.007-.059.017-.089.029.03-.01.06-.019.089-.029Z" fill="#111111" id="eZi4fA9NoQmNhyM8kyO" />
    </g>
    <g id="WkBAzWhJDJkEqGcRgn_Tw">
      <path d="M241.684,556.448l40.756,17.783c-4.436,14.563-8.87,29.136-13.306,43.698-.32.935-.796,2.165-1.185,3.074-.214.479-.548,1.082-.821,1.534-1.339,2.28-2.655,3.646-3.157,4.135-.694.665-1.668,1.505-2.413,2.109-.44.348-1.061.761-1.553,1.037q-1.567.905-3.139,1.566c-.403.177-.886.33-1.369.483-.043.016-.087.021-.129.036-.344.104-.688.209-.98.285l-2.031.523c-.955.205-2.23.433-3.206.551-.582.064-1.368.083-1.947.08-2.448-.032-4.326-.448-5.473-.777-.839-.252-1.947-.631-2.741-.988-.912-.411-2.072-1.061-2.928-1.579-.678-.403-2.607-1.792-3.932-3.235-.896-.979-2.26-2.474-3.637-5.1-.45-.862-.865-1.805-1.218-2.8-.387-1.091-.446-1.329-.833-2.93-.001-.011-.319-1.487-.421-3.031-.077-1.202-.075-1.392,0-3.133.044-1.016.305-2.889.9-4.865.999-3.254,2.322-7.598,3.308-10.862.5-1.621,1.16-3.804,1.66-5.426.986-3.263,2.308-7.619,3.307-10.872.996-3.275,2.318-7.631,3.316-10.896.948-3.104,2.188-7.195,3.17-10.402Z" fill="#FFFFFF" id="ayW6jnLFOLayvz1Ae_gdl" />
      <path d="M247.31,634.844c-.044,0-.083,0-.113,0-2.07-.027-4.045-.308-5.88-.836-.425-.128-1.841-.567-2.941-1.061-1.228-.554-2.674-1.413-3.089-1.663-.716-.427-2.796-1.909-4.262-3.505-.894-.977-2.388-2.61-3.86-5.418-.497-.952-.935-1.958-1.303-2.994-.417-1.179-.487-1.469-.877-3.081-.005-.023-.01-.046-.015-.069-.106-.52-.353-1.835-.444-3.215-.08-1.249-.08-1.495-.001-3.297.05-1.151.33-3.13.962-5.232,1-3.26,2.323-7.602,3.309-10.864l1.663-5.434c.985-3.257,2.308-7.615,3.307-10.871l.831-2.733c.83-2.731,1.746-5.745,2.484-8.161l3.17-10.403c.125-.409.419-.745.808-.924.389-.178.835-.183,1.227-.012l40.756,17.783c.698.304,1.057,1.083.835,1.812l-13.306,43.698c-.336.986-.828,2.264-1.241,3.227-.325.726-.783,1.499-.916,1.719-1.346,2.292-2.705,3.763-3.395,4.435-.804.77-1.855,1.665-2.514,2.199-.506.401-1.193.86-1.763,1.18-1.603.926-1.664.956-3.292,1.641-.457.201-.986.369-1.498.531-.035.011-.136.039-.172.048.035-.008.075-.021.115-.036-.453.14-.816.25-1.125.331l-2.038.524c-.94.203-2.279.452-3.399.588-.743.082-1.635.091-2.022.091ZM227.908,615.611c.369,1.525.418,1.729.782,2.754.321.903.703,1.78,1.133,2.606,1.291,2.461,2.568,3.858,3.414,4.781,1.158,1.261,2.94,2.57,3.593,2.959,1.017.614,2.053,1.173,2.777,1.5.741.333,1.807.693,2.557.919,1.56.449,3.269.691,5.061.714.506,0,1.245-.015,1.764-.072.824-.1,2.029-.307,3.055-.527l1.971-.509c.269-.071.593-.169.918-.268.027-.008.11-.031.146-.041.462-.148.875-.281,1.183-.417q1.507-.635,2.993-1.492c.446-.251,1.004-.623,1.372-.914.795-.645,1.705-1.44,2.305-2.015.574-.558,1.725-1.807,2.902-3.811.237-.393.55-.952.745-1.387.376-.879.835-2.072,1.134-2.946l12.901-42.372-37.988-16.576-2.679,8.792c-.738,2.415-1.653,5.427-2.483,8.157l-.832,2.737c-1,3.256-2.321,7.609-3.307,10.87l-1.662,5.434c-.985,3.257-2.309,7.604-3.308,10.86-.551,1.831-.795,3.564-.835,4.49-.074,1.703-.074,1.842-.002,2.972.082,1.232.318,2.457.389,2.802h0ZM255.079,630.428c-.031.008-.065.019-.101.032.034-.011.067-.021.101-.032Z" fill="#111111" id="TYqLBjGQOWcbSe7hxLuuM" />
    </g>
    <g id="qUWvBlknvGd1M9HadYFtw">
      <path d="M321.773,591.393l40.756,17.783c-4.459,14.654-8.919,29.297-13.378,43.95-.32.935-.797,2.154-1.197,3.064-.203.478-.547,1.093-.808,1.544-1.351,2.27-2.655,3.646-3.158,4.124-.692.676-1.667,1.516-2.424,2.11-.44.348-1.061.761-1.541,1.047q-1.578.906-3.139,1.566c-.404.167-.897.332-1.38.485-.044.005-.087.021-.129.036-.344.104-.678.196-.98.285l-2.022.511c-.955.205-2.241.435-3.206.552-.581.075-1.367.094-1.958.081-2.437-.033-4.314-.438-5.462-.779-.837-.242-1.947-.631-2.741-.988-.912-.411-2.071-1.051-2.927-1.568-.678-.403-2.607-1.791-3.933-3.246-.896-.979-2.259-2.463-3.636-5.089-.321-.598-.783-1.569-1.218-2.799-.397-1.09-.447-1.34-.832-2.931-.04-.162-.323-1.631-.423-3.042-.087-1.201-.074-1.381.002-3.122.044-1.016.304-2.899.9-4.865.986-3.263,2.31-7.608,3.308-10.861.499-1.632,1.16-3.805,1.648-5.436.499-1.632,1.16-3.805,1.659-5.437.997-3.265,2.99-7.482,3.306-10.883,0,0,2.329-7.632,3.327-10.897.474-1.552,1.085-3.585,1.585-5.195Z" fill="#FFFFFF" id="Cnc6Vbh8BSaidX4a0ngNd" />
      <path d="M327.564,670.035c-.172,0-.308-.002-.388-.004-2.614-.035-4.628-.476-5.855-.84-.972-.28-2.126-.697-2.93-1.058-1.022-.461-2.265-1.156-3.087-1.652-.718-.428-2.804-1.916-4.266-3.52-.96-1.049-2.395-2.616-3.856-5.403-.264-.491-.793-1.552-1.304-2.996-.392-1.075-.478-1.429-.796-2.749l-.08-.328c-.064-.259-.357-1.819-.46-3.29-.09-1.236-.078-1.519-.009-3.09l.009-.203c.051-1.162.33-3.147.962-5.234.987-3.264,2.311-7.611,3.31-10.867.497-1.628,1.158-3.797,1.645-5.425l1.662-5.445c.331-1.081.751-2.225,1.198-3.435.911-2.471,1.852-5.027,2.049-7.148.009-.102.029-.202.059-.3l3.851-12.618c.355-1.172.733-2.418,1.064-3.481.126-.407.42-.741.809-.919.388-.177.833-.181,1.224-.01l40.756,17.783c.697.304,1.057,1.083.835,1.812l-13.378,43.95c-.345,1.012-.833,2.261-1.258,3.23-.18.422-.471.982-.885,1.694-1.535,2.58-3.008,4.064-3.423,4.458-.679.663-1.678,1.533-2.53,2.202-.535.424-1.229.875-1.699,1.155-1.647.946-1.709.977-3.323,1.659-.396.164-.858.326-1.511.533-.037.012-.075.022-.112.031-.013.004-.025.008-.034.011-.218.066-.433.128-.638.187l-.354.102-2.078.526c-1.152.248-2.463.473-3.392.586-.624.08-1.331.096-1.784.096ZM335.671,668.557h-.002.002ZM318.338,607.781c-.26,2.47-1.249,5.154-2.206,7.751-.431,1.17-.838,2.275-1.144,3.275l-1.659,5.437c-.486,1.625-1.148,3.801-1.648,5.436-.999,3.254-2.321,7.596-3.308,10.857-.552,1.823-.795,3.562-.836,4.496l-.009.202c-.066,1.52-.073,1.679.004,2.745.091,1.291.351,2.653.385,2.802l.079.326c.309,1.279.365,1.51.704,2.44.449,1.27.9,2.176,1.13,2.604,1.287,2.455,2.563,3.85,3.408,4.772,1.169,1.282,2.952,2.594,3.606,2.983.756.457,1.876,1.083,2.776,1.49.674.303,1.695.67,2.541.914,1.057.313,2.782.689,5.067.72.633.015,1.312-.013,1.746-.069.845-.103,2.079-.315,3.083-.53l2.88-.764s.075-.031.196-.058c.414-.132.831-.272,1.176-.414q1.465-.62,2.964-1.48c.458-.273,1.011-.648,1.356-.922.768-.603,1.693-1.408,2.307-2.007.261-.248,1.553-1.525,2.917-3.817.423-.728.624-1.145.717-1.364.396-.901.858-2.085,1.158-2.962l12.974-42.625-37.993-16.577c-.188.616-.38,1.248-.565,1.86l-3.809,12.481Z" fill="#111111" id="h2C7fYmfFS8XGGSb9kmzg" />
    </g>
  </g><g id="bCF3u_QuWNr5kvvltDZDr">
    <g id="luwPZIy7mHXzCY-lcNQ8O">
      <path d="M61.391,358.251l-13.339,42.38c-11.17-4.908-22.352-9.825-33.524-14.744-.892-.435-2.09-1.026-2.927-1.567-1.375-.883-2.247-1.642-2.714-2.058-2.213-1.946-3.607-4.115-4.109-4.949-.953-1.595-1.345-2.541-1.41-2.723-.337-.841-.74-1.985-1.024-2.854-.137-.44-.258-1.038-.362-1.482-.039-.151-.322-1.62-.423-3.042-.085-1.18-.075-1.292.002-3.122-.004-.033.143-3.148,1.44-6.424.242-.627.651-1.66,1.467-3.038.692-1.187.955-1.527,1.938-2.79,1.179-1.507,3.113-3.119,3.838-3.598,1.594-1.064,1.79-1.207,3.001-1.807.874-.44,2.079-.894,3.002-1.196.29-.087.68-.185.96-.261l2.031-.523c.456-.095.793-.165,1.097-.232h.011c.098-.023.184-.043.283-.054.879-.185,1.177-.207,2.134-.29.97-.073,2.282-.061,3.258.021,1.671.139,2.94.467,3.558.632.571.137,1.311.4,1.865.595.357.116.802.323,1.151.463,9.595,4.225,19.202,8.448,28.796,12.662Z" fill="#FFFFFF" id="u5kMwcMv-bv2suPkFka" />
      <path d="M48.052,402.131c-.206,0-.411-.042-.604-.127-11.17-4.908-22.353-9.825-33.524-14.744-1.087-.53-2.263-1.115-3.137-1.681-1.528-.981-2.486-1.832-2.896-2.196-2.234-1.964-3.715-4.162-4.398-5.297-.925-1.548-1.402-2.61-1.538-2.995-.356-.887-.773-2.083-1.037-2.889-.118-.38-.222-.834-.314-1.244l-.082-.36c-.05-.195-.352-1.764-.458-3.281-.088-1.22-.079-1.434-.009-3.1l.008-.191h.007c.032-.838.314-3.824,1.536-6.912.214-.552.667-1.724,1.571-3.25.744-1.276,1.072-1.697,2.046-2.948,1.321-1.69,3.383-3.392,4.194-3.928l.262-.175c1.385-.925,1.674-1.118,2.901-1.725,1.214-.611,2.757-1.132,3.201-1.277.259-.078.538-.152.789-.218l2.295-.593c.52-.109.851-.178,1.15-.244.018-.004.035-.007.053-.01.113-.025.211-.044.312-.059.894-.187,1.271-.219,2.155-.296.006,0,.111-.01.117-.01,1.022-.076,2.426-.068,3.495.022,1.871.156,3.287.535,3.82.678.583.14,1.313.396,1.899.603.32.106.644.241.949.371l.338.142c9.641,4.244,19.247,8.467,28.84,12.681.701.308,1.058,1.094.828,1.824l-13.339,42.38c-.128.406-.423.74-.811.916-.197.089-.408.134-.62.134ZM3.061,364.12c0,.011,0,.022,0,.034l-.008.191c-.07,1.644-.072,1.708.003,2.76.091,1.298.35,2.649.384,2.795l.092.402c.074.332.155.699.245.989.306.936.695,2.02.985,2.742.023.062.353.917,1.305,2.511.591.982,1.876,2.89,3.812,4.592.363.322,1.199,1.064,2.534,1.922.8.518,2.036,1.121,2.775,1.482,10.609,4.67,21.277,9.361,31.937,14.045l12.433-39.501c-9.185-4.034-18.381-8.077-27.566-12.122l-.349-.146c-.223-.095-.459-.198-.663-.264-.011-.003-.096-.033-.107-.037-.495-.174-1.173-.412-1.644-.526-.499-.133-1.727-.462-3.331-.595-.912-.077-2.155-.085-3.021-.02-.945.082-1.178.102-1.937.262-.049.01-.098.018-.147.023,0,0-.119.026-.119.026-.021.005-.041.009-.062.012-.297.065-.627.134-1.067.225l-2.21.573c-.218.057-.46.121-.654.179-.776.254-1.935.685-2.758,1.099-1.062.526-1.235.641-2.575,1.536l-.269.179c-.674.446-2.46,1.959-3.489,3.275-.951,1.22-1.177,1.51-1.824,2.621-.782,1.322-1.161,2.299-1.364,2.825-1.168,2.953-1.33,5.742-1.339,5.911Z" fill="#111111" id="V3u-Jw22_6W80Qf5szNx9" />
    </g>
    <g id="u0rnDa743IfBmohcbX0gP">
      <path d="M28.617,282.767c-.039-.151-.333-1.619-.434-3.041-.074-1.18-.075-1.291.002-3.122.008-.034.155-3.15,1.451-6.425.244-.616.652-1.649,1.466-3.038.681-1.186.944-1.525,1.928-2.778,1.178-1.518,3.112-3.13,3.847-3.622,1.583-1.062,1.791-1.196,3.003-1.796.863-.439,2.078-.906,3.002-1.196.29-.087.669-.185.959-.272l2.033-.511c.445-.093.793-.165,1.086-.23.098-.022.206-.045.304-.067.881-.174,1.177-.207,2.136-.279.969-.084,2.282-.061,3.257.021,1.671.139,2.94.466,3.557.621.572.148,1.312.412,1.866.606.346.117.802.323,1.15.463l9.933,4.366c6.548,2.881,13.108,5.762,19.658,8.654l-13.34,42.368c-11.438-5.023-22.878-10.056-34.317-15.09-.903-.434-2.09-1.026-2.927-1.568-1.375-.893-2.248-1.653-2.714-2.058-2.213-1.946-3.617-4.114-4.109-4.949-.953-1.595-1.346-2.552-1.41-2.723-.337-.841-.752-1.995-1.024-2.854-.137-.44-.258-1.038-.362-1.482Z" fill="#FFFFFF" id="Ffv0K_-ddZH75FmwdqzLc" />
      <path d="M75.48,314.99c-.206,0-.411-.042-.603-.126-11.439-5.023-22.879-10.057-34.318-15.09-.924-.443-2.2-1.074-3.138-1.681-1.447-.94-2.369-1.739-2.864-2.168-2.424-2.132-3.91-4.441-4.437-5.337-1.087-1.82-1.481-2.85-1.523-2.961-.344-.859-.771-2.048-1.048-2.924-.115-.371-.221-.832-.314-1.247l-.078-.344c-.081-.339-.368-1.842-.47-3.279-.08-1.268-.08-1.421,0-3.291,0-.024.002-.048.005-.072.078-1.095.381-3.887,1.549-6.842.261-.66.696-1.758,1.568-3.245.71-1.237,1.01-1.633,2.043-2.946,1.294-1.667,3.37-3.391,4.191-3.941,1.634-1.096,1.892-1.26,3.172-1.893,1.025-.522,2.376-1.018,3.217-1.282.172-.052.35-.101.528-.15.156-.043.312-.086.448-.127l2.412-.596c.319-.067.583-.122.812-.173l.306-.067c.984-.196,1.343-.235,2.35-.311.958-.084,2.337-.075,3.495.021,1.736.145,3.084.482,3.732.645.671.174,1.382.423,1.953.624l.109.038c.245.083.559.214.856.338l.355.147,15,6.594c4.88,2.146,9.763,4.293,14.64,6.447.699.309,1.054,1.094.825,1.823l-13.34,42.368c-.128.406-.423.74-.811.916-.197.089-.408.134-.62.134ZM29.683,276.692c-.075,1.78-.072,1.828-.002,2.94.091,1.283.355,2.617.392,2.773,0,0,.005.019.005.02l.085.374c.075.336.157.71.249,1.005.251.794.657,1.924.984,2.743.017.042.353.916,1.305,2.511.359.609,1.68,2.717,3.812,4.591.45.39,1.27,1.101,2.541,1.927.885.572,2.296,1.25,2.76,1.473,10.885,4.789,21.811,9.597,32.739,14.396l12.435-39.492c-4.467-1.971-8.938-3.938-13.407-5.903l-15.311-6.721c-.229-.096-.471-.2-.671-.268l-.125-.043c-.518-.182-1.163-.408-1.637-.531-.666-.167-1.811-.454-3.304-.578-.988-.083-2.193-.092-3.003-.021-.935.07-1.163.095-1.974.256l-.268.059c-.241.054-.518.112-.854.182l-.252.053-1.974.498c-.089.029-.269.078-.449.128-.155.043-.31.085-.444.126-.93.292-2.043.735-2.753,1.096-1.142.565-1.287.657-2.848,1.705-.576.385-2.398,1.88-3.497,3.295-.95,1.208-1.174,1.493-1.812,2.605-.762,1.3-1.144,2.264-1.372,2.841-1.048,2.649-1.296,5.215-1.347,5.938,0,.008,0,.017-.002.026Z" fill="#111111" id="NciVqejbJNYDFHqSFUi" />
    </g>
    <g id="kS4sCS_nhg3S1GSZ-7zJj">
      <path d="M105.731,179.345c3.514,1.548,7.015,3.086,10.529,4.634l-13.35,42.381c-1.775-.783-3.537-1.556-5.312-2.34-2.976-1.306-6.957-3.059-9.945-4.375-1.482-.648-3.467-1.531-4.96-2.178-1.494-.658-3.478-1.529-4.973-2.188-1.483-.659-3.167-1.63-4.874-2.498-1.705-.858-3.455-1.621-5.06-1.867-.893-.447-2.091-1.037-2.928-1.579-1.375-.883-2.236-1.644-2.703-2.059-2.213-1.946-3.616-4.103-4.12-4.948-.942-1.597-1.334-2.542-1.408-2.712-.327-.853-.741-1.996-1.014-2.866-.136-.429-.257-1.027-.362-1.482-.012-.01-.321-1.509-.432-3.03-.074-1.181-.075-1.292.002-3.122.007-.034.143-3.149,1.44-6.424.244-.616.651-1.66,1.467-3.038.692-1.187.955-1.527,1.939-2.779,1.178-1.518,3.112-3.13,3.836-3.62,1.594-1.064,1.801-1.198,3.003-1.796.874-.44,2.089-.907,3.013-1.197.279-.086.668-.184.959-.272l2.033-.512c.466-.107.814-.178,1.117-.245.088-.01.186-.031.272-.052.881-.174,1.177-.207,2.136-.279.968-.084,2.282-.061,3.257.02,1.671.139,2.893.449,3.556.621.572.148,1.311.4,1.865.595.347.128.803.334,1.151.463l9.923,4.378,9.944,4.364Z" fill="#FFFFFF" id="yfiruAfG2oUf5RHFQinf0" />
      <path d="M102.91,227.86c-.207,0-.413-.042-.605-.128l-5.312-2.34c-2.974-1.305-6.955-3.058-9.944-4.375l-1.937-.852c-1.039-.458-2.117-.933-3.016-1.323l-4.98-2.191c-1.006-.447-2.051-1.004-3.158-1.594-.589-.314-1.188-.634-1.792-.94-1.348-.678-3.096-1.489-4.606-1.721-.154-.024-.304-.071-.443-.141l-.149-.075c-.919-.458-2.062-1.029-2.923-1.586-1.482-.951-2.43-1.792-2.885-2.197-2.375-2.089-3.877-4.404-4.412-5.302-.433-.734-1.039-1.82-1.484-2.855-.189-.486-.715-1.875-1.082-3.042-.114-.36-.222-.832-.317-1.259l-.076-.333.01-.002c-.178-.558-.351-1.521-.478-3.257-.079-1.268-.079-1.421,0-3.295,0-.023.002-.045.004-.068.074-1.096.37-3.89,1.539-6.844.276-.697.711-1.799,1.57-3.25.723-1.24,1.022-1.634,2.051-2.942,1.279-1.649,3.351-3.378,4.174-3.935,1.654-1.104,1.913-1.268,3.175-1.896.861-.434,2.132-.939,3.231-1.285.167-.052.359-.105.552-.157.148-.041.296-.081.424-.119l2.1-.53c.357-.082.626-.14.864-.191l.298-.064c.053-.012.106-.02.16-.026l.087-.02c1.005-.2,1.364-.24,2.371-.315.959-.083,2.338-.075,3.495.021,1.834.153,3.167.498,3.807.664.644.167,1.442.441,1.986.632.214.079.437.171.658.263.18.075.36.15.516.208l19.949,8.775h.001s10.529,4.634,10.529,4.634c.7.308,1.056,1.094.826,1.823l-13.35,42.381c-.128.407-.423.74-.812.916-.197.089-.408.134-.619.134ZM68.256,209.471c1.853.333,3.777,1.221,5.264,1.969.626.319,1.243.647,1.848.97,1.058.564,2.058,1.097,2.961,1.498l4.968,2.186c.896.388,1.979.866,3.023,1.326l1.933.85c2.992,1.318,6.972,3.07,9.947,4.376l3.781,1.666,12.443-39.502-29.167-12.835c-.104-.036-.323-.126-.542-.217-.183-.076-.365-.153-.523-.211-.262-.092-1.126-.396-1.723-.551-.559-.145-1.723-.447-3.304-.578-.986-.083-2.192-.091-3.003-.021-.936.07-1.164.095-1.975.256-.07.018-.187.042-.305.059l-.248.053c-.226.049-.482.104-.792.175l-2.001.504c-.083.027-.256.074-.43.122-.16.044-.32.087-.453.128-.936.294-2.056.739-2.78,1.103-1.12.558-1.266.651-2.845,1.704-.57.386-2.396,1.891-3.483,3.292-.951,1.21-1.176,1.495-1.829,2.615-.743,1.256-1.11,2.183-1.353,2.796-1.061,2.681-1.301,5.245-1.35,5.968,0,.009-.001.018-.002.028-.075,1.787-.072,1.835-.003,2.944.092,1.252.333,2.5.382,2.726.005.019.01.039.015.059l.081.357c.076.343.159.721.25,1.012.271.865.687,2.003.985,2.781.375.867.915,1.833,1.3,2.487.459.77,1.757,2.771,3.818,4.583.434.386,1.233,1.095,2.523,1.923.711.46,1.744.978,2.587,1.399Z" fill="#111111" id="NmRqi2cxIAHbo4djh6rU1" />
    </g>
    <g id="UBXuNbkoFdQ5sil-t7eqh">
      <path d="M81.874,107.782c-.038-.14-.321-1.609-.421-3.031-.086-1.19-.076-1.303,0-3.133-.002-.022.143-3.149,1.44-6.424.244-.616.652-1.649,1.466-3.038.693-1.176.956-1.516,1.939-2.779,1.179-1.507,3.113-3.119,3.837-3.609,1.594-1.064,1.791-1.196,3.003-1.796.874-.44,2.078-.906,3.002-1.196.29-.087.669-.185.959-.272l2.032-.512c.456-.094.803-.177,1.097-.231.098-.022.195-.044.293-.065.881-.174,1.177-.207,2.136-.279.969-.084,2.282-.061,3.257.021,1.671.139,2.94.466,3.557.621.572.148,1.311.401,1.865.595.347.129.803.334,1.152.474l9.933,4.365c7.086,3.122,14.171,6.234,21.255,9.345l-13.338,42.391c-5.347-2.358-10.694-4.715-16.05-7.061-2.978-1.318-6.957-3.059-9.935-4.377-1.493-.647-3.478-1.53-4.971-2.177-.747-.329-1.578-.916-2.432-1.411-.853-.484-1.728-.866-2.529-.778-.903-.434-2.09-1.026-2.927-1.568-1.376-.894-2.248-1.653-2.714-2.058-2.213-1.946-3.606-4.115-4.11-4.96-.951-1.584-1.334-2.542-1.408-2.712-.338-.852-.741-1.996-1.025-2.865-.136-.429-.247-1.039-.362-1.482Z" fill="#FFFFFF" id="fgQ-0RpelS1_fBcAnKIVA" />
      <path d="M130.339,140.729c-.206,0-.413-.042-.605-.127-5.346-2.357-10.691-4.714-16.046-7.059-1.504-.666-3.256-1.436-5.007-2.206-1.728-.76-3.454-1.519-4.933-2.173-.733-.318-1.599-.698-2.465-1.079-.873-.384-1.747-.768-2.496-1.093-.598-.263-1.192-.633-1.767-.99-.27-.168-.544-.339-.821-.499-.741-.42-1.291-.62-1.613-.584-.28.031-.561-.017-.813-.139-.879-.422-2.155-1.054-3.092-1.66-1.452-.943-2.373-1.742-2.868-2.172-2.283-2.007-3.754-4.204-4.43-5.337-.614-1.023-1.112-1.979-1.477-2.838-.355-.889-.77-2.048-1.094-3.042-.099-.312-.186-.688-.267-1.051-.041-.184-.081-.363-.122-.52-.079-.305-.364-1.857-.466-3.303-.089-1.231-.08-1.446-.01-3.113l.008-.189h.008c.031-.849.31-3.817,1.536-6.913.241-.611.691-1.751,1.566-3.244.75-1.272,1.052-1.659,2.05-2.942,1.291-1.65,3.358-3.373,4.179-3.929,1.606-1.072,1.888-1.26,3.179-1.898.867-.437,2.133-.942,3.218-1.282.172-.052.35-.101.528-.15.156-.043.312-.086.448-.127l2.662-.651c.237-.052.442-.096.627-.13l.148-.034c.012-.003.114-.025.125-.028.95-.188,1.309-.228,2.315-.303.961-.084,2.341-.076,3.495.022,1.739.144,3.088.483,3.736.646.7.181,1.462.441,2.057.65.251.093.521.206.782.317l.43.179,9.979,4.385c6.798,2.996,13.594,5.981,20.39,8.965l.865.38c.701.308,1.058,1.094.828,1.823l-13.338,42.391c-.128.407-.423.74-.812.916-.197.089-.408.134-.619.134ZM94.741,121.915c1.108.025,2.145.527,2.95.985.316.183.617.37.913.554.508.316.988.615,1.383.789.746.323,1.625.71,2.502,1.096.861.379,1.722.757,2.461,1.078,1.487.658,3.211,1.416,4.937,2.175,1.753.771,3.508,1.542,5.008,2.206,4.841,2.12,9.678,4.251,14.515,6.384l12.431-39.51c-6.675-2.931-13.35-5.864-20.026-8.805l-9.932-4.365c-.102-.04-.269-.111-.439-.183-.218-.092-.441-.188-.63-.258-.472-.166-1.193-.413-1.72-.55-.663-.166-1.808-.454-3.304-.578-.986-.083-2.191-.092-3.004-.021-.935.07-1.163.095-1.974.256l-.255.057c-.214.041-.389.079-.591.123l-.53.113-1.971.498c-.089.029-.269.078-.449.128-.155.043-.31.085-.444.126-.912.286-2.027.73-2.759,1.099-1.126.558-1.254.643-2.815,1.684-.598.405-2.425,1.909-3.517,3.305-.952,1.223-1.179,1.515-1.829,2.617-.756,1.291-1.136,2.252-1.363,2.827-1.161,2.934-1.328,5.762-1.335,5.912,0,.008,0,.016,0,.024l-.008.189c-.07,1.646-.072,1.71.004,2.773.091,1.287.341,2.6.379,2.771.048.184.095.394.144.609.062.275.123.561.195.787.303.928.693,2.018.99,2.766.321.754.755,1.585,1.3,2.493.474.793,1.789,2.823,3.815,4.605.447.388,1.266,1.099,2.541,1.926.726.469,1.809,1.012,2.43,1.314Z" fill="#111111" id="dzEsY4wKQpv_JfFMhyoWf" />
    </g>
  </g><g id="wIskfcoq3PxNMBwBagTGJ">
    <g id="GiTZPDjMOZ_mXsudoVco">
      <path d="M543.033,201.618c7.96,3.501,12.264,13.392,9.614,22.096l-125.763,413.165c-2.649,8.704-11.247,12.921-19.207,9.419L29.832,480.108c-7.96-3.501-12.264-13.392-9.614-22.096L145.981,44.846c2.649-8.704,11.247-12.921,19.207-9.419l377.845,166.192Z" fill="#B0C3FF" id="FsyF6Huimqu0do1llITJJ" />
      <path d="M413.404,649.034c-2.122,0-4.266-.454-6.331-1.362L29.228,481.48c-8.618-3.791-13.304-14.515-10.445-23.906L144.546,44.409c1.449-4.761,4.55-8.44,8.732-10.361,3.944-1.811,8.389-1.81,12.514.005l377.845,166.192c8.618,3.791,13.304,14.515,10.445,23.906l-125.763,413.165c-1.449,4.761-4.55,8.44-8.732,10.36-1.971.905-4.066,1.357-6.184,1.357ZM159.462,35.695c-1.693,0-3.364.36-4.932,1.08-3.392,1.557-5.918,4.579-7.114,8.508L21.653,458.448c-2.431,7.987,1.509,17.087,8.783,20.286l377.845,166.192c3.33,1.465,6.9,1.473,10.054.024,3.392-1.557,5.918-4.579,7.114-8.508l125.763-413.165c2.431-7.987-1.509-17.087-8.783-20.287L164.584,36.8c-1.674-.736-3.41-1.105-5.122-1.105Z" fill="#111111" id="j7B90NUrfZBgCagJd4uh" />
    </g>
    <g id="kwP1jR75TYUN5Gja_blNl" style="isolation:isolate;">
      <g id="F2QdqE8DXuTlKKhZdnUkK">
        <path d="M374.41,569.398l-277.943-122.251c-7.959-3.501-12.26-13.401-9.613-22.097L179.367,121.118c1.64-5.389,5.561-9.058,10.199-10.24l-14.758,3.762c-4.638,1.182-8.558,4.851-10.199,10.24l-92.514,303.932c-2.647,8.696,1.654,18.596,9.613,22.097l277.943,122.251c3.03,1.333,6.153,1.546,9.005.819l14.758-3.762c-2.852.727-5.975.514-9.005-.819Z" fill="url(#linearGradient__w3uxKGT)" id="M0SkGAN79LXIoGGN79Ffk" />
        <path d="M365.366,575.892c-2.126,0-4.263-.456-6.317-1.359l-277.943-122.251c-8.618-3.791-13.303-14.515-10.445-23.907L163.174,124.443c1.733-5.693,5.944-9.901,11.264-11.257l14.758-3.762c.806-.203,1.62.281,1.824,1.083.205.803-.28,1.619-1.083,1.824-4.295,1.095-7.71,4.543-9.134,9.223l-92.514,303.933c-2.431,7.987,1.509,17.088,8.783,20.287l277.943,122.251c2.618,1.151,5.389,1.407,8.016.742l.015-.004s0,0,0,0c.805-.203,1.62.28,1.824,1.083.205.803-.28,1.619-1.083,1.824l-14.758,3.762c-1.205.307-2.432.459-3.662.46ZM181.186,114.561l-6.007,1.531c-4.295,1.094-7.71,4.542-9.135,9.223l-92.514,303.932c-2.431,7.987,1.509,17.088,8.783,20.287l277.943,122.251c2.623,1.153,5.399,1.409,8.03.739l6.034-1.538c-.172-.069-.343-.141-.514-.216h0l-277.943-122.251c-8.618-3.791-13.303-14.515-10.445-23.906L177.932,120.681c.705-2.316,1.82-4.387,3.253-6.119Z" fill="#111111" id="Upl6Tzf1KTDY4MQoLZWcF" />
      </g>
      <g id="mL1vJReOQ2bv6Mzd8thP5">
        <path d="M528.334,205.07c7.959,3.501,12.264,13.391,9.617,22.087l-125.766,413.174c-2.647,8.695-11.245,12.911-19.204,9.41L15.136,483.549c-7.96-3.501-12.264-13.393-9.618-22.087L131.284,48.288c2.647-8.696,11.245-12.911,19.205-9.41l377.845,166.192ZM378.86,563.739l92.514-303.932c2.65-8.705-1.653-18.595-9.614-22.097L183.816,115.459c-7.959-3.501-16.557.716-19.207,9.42l-92.514,303.932c-2.647,8.696,1.654,18.596,9.614,22.097l277.943,122.251c7.96,3.501,16.56-.725,19.207-9.42" fill="#B0C3FF" id="QlDDiZISK6KhdJ7Y7DLad" />
        <path d="M398.708,652.476c-2.122,0-4.266-.454-6.331-1.362L14.532,484.922c-8.618-3.791-13.306-14.511-10.449-23.897L129.849,47.851c1.448-4.756,4.547-8.432,8.727-10.351,3.945-1.812,8.391-1.81,12.518.005l377.845,166.192c8.618,3.79,13.304,14.51,10.448,23.896l-125.766,413.174c-1.448,4.756-4.547,8.432-8.727,10.351-1.971.905-4.067,1.358-6.185,1.358ZM144.761,39.146c-1.693,0-3.365.36-4.934,1.08-3.39,1.556-5.914,4.574-7.108,8.498L6.953,461.899c-2.43,7.981,1.512,17.078,8.787,20.278l377.845,166.192c3.328,1.464,6.9,1.473,10.056.024,3.39-1.557,5.915-4.575,7.109-8.498l125.766-413.174c2.429-7.981-1.512-17.078-8.786-20.277L149.885,40.251c-1.675-.737-3.411-1.105-5.124-1.105ZM365.375,575.894c-2.121,0-4.263-.454-6.326-1.361l-277.943-122.251c-8.618-3.791-13.304-14.515-10.445-23.907L163.174,124.443c1.45-4.761,4.551-8.441,8.733-10.361,3.945-1.812,8.388-1.81,12.514.005l277.943,122.251c8.618,3.791,13.303,14.515,10.444,23.907l-92.514,303.932c-1.449,4.76-4.551,8.439-8.735,10.36-1.971.905-4.067,1.358-6.185,1.358ZM178.091,115.728c-1.693,0-3.364.36-4.932,1.08-3.392,1.558-5.918,4.579-7.115,8.509l-92.514,303.932c-2.431,7.987,1.509,17.088,8.783,20.287l277.943,122.251c3.328,1.464,6.897,1.471,10.052.023,3.394-1.558,5.921-4.579,7.116-8.507l1.435.437-1.435-.437,92.514-303.932c2.431-7.987-1.509-17.088-8.782-20.287L183.213,116.832c-1.674-.736-3.409-1.104-5.122-1.104Z" fill="#111111" id="nA7lVXkQuMN_cOFuuMC2L" />
      </g>
      <g id="rtMyBP5y04_xwSPxXZ8f3">
        <path d="M412.185,640.331c-1.638,5.382-5.557,9.049-10.194,10.231l36.831-9.084c4.637-1.182,8.558-4.851,10.198-10.24l-36.836,9.093Z" fill="url(#linearGradient_uvaLO7F0)" id="mNDVgMFZPQUOvcuCTLnSk" />
        <path d="M401.991,652.061c-.672,0-1.283-.455-1.454-1.135-.201-.802.284-1.615,1.084-1.819,4.293-1.094,7.706-4.539,9.129-9.214.154-.506.562-.893,1.076-1.02l36.836-9.094c.525-.128,1.077.033,1.448.424.371.392.503.953.346,1.469-1.733,5.692-5.943,9.9-11.263,11.257l-36.842,9.087c-.121.03-.242.044-.36.044ZM413.349,641.588c-.719,2.021-1.759,3.837-3.053,5.38l28.167-6.947c3.445-.878,6.329-3.281,8.066-6.624l-33.18,8.191Z" fill="#111111" id="ULRzGJi2WypweSz6iudsn" />
      </g>
      <g id="AjL0DQB8WYNr2qzZs8B9Y">
        <path d="M187.325,29.784c-3.032-1.334-6.156-1.547-9.009-.82l-36.838,9.094c2.854-.727,5.979-.513,9.012.82l377.845,166.192,36.836-9.094L187.325,29.784Z" fill="url(#linearGradient_6UcbKkTy)" id="ZbkXpAWTPE3wKUT1K8JbH" />
        <path d="M528.334,206.57c-.207,0-.412-.043-.604-.127L149.885,40.251c-2.565-1.129-5.278-1.399-7.857-.785l-.191.047c-.802.199-1.613-.29-1.814-1.091-.201-.801.284-1.615,1.084-1.819.073-.018.145-.036.217-.054l36.632-9.043c3.276-.835,6.729-.523,9.973.904l377.845,166.192c.587.259.946.862.891,1.502-.056.64-.512,1.173-1.135,1.327l-36.835,9.094c-.118.029-.239.044-.359.044ZM150.681,37.331c.138.056.275.114.412.175l377.377,165.986,32.063-7.916L186.721,31.157c-2.624-1.154-5.403-1.41-8.035-.74l-28.004,6.913Z" fill="#111111" id="XPQCcc2Qs_kzolFc1thtC" />
      </g>
      <g id="R-XrfpnJCxK-Z41pe-NjM">
        <polygon points="537.951 227.157 412.185 640.331 449.021 631.237 574.784 218.072 537.951 227.157" fill="url(#linearGradient_3OmN5DzV)" id="JDsDWiyp-om2S7AtW1_o2" />
        <path d="M412.185,641.831c-.407,0-.802-.166-1.089-.468-.371-.392-.503-.953-.346-1.469l125.766-413.174c.154-.506.562-.893,1.076-1.02l36.833-9.084c.525-.129,1.077.033,1.448.425.371.392.503.952.346,1.469l-125.763,413.165c-.154.506-.562.893-1.076,1.02l-36.836,9.094c-.119.029-.24.044-.359.044ZM539.138,228.409l-124.749,409.833,33.445-8.256,124.747-409.825-33.443,8.248Z" fill="#111111" id="kRqRb3MKfVcEMb45wkN7U" />
      </g>
      <g id="jtOlcw6Xp_fYCzaGSk6DN">
        <path d="M565.17,195.976l-36.836,9.094c7.959,3.501,12.264,13.391,9.617,22.087l36.833-9.084c2.649-8.704-1.654-18.595-9.614-22.096Z" fill="url(#linearGradient_9YoF2aZX)" id="CkRLpELmpHOVAdwkL2DZZ" />
        <path d="M537.951,228.657c-.407,0-.802-.166-1.089-.468-.371-.392-.503-.952-.346-1.469,2.429-7.982-1.512-17.078-8.786-20.277-.588-.259-.946-.862-.891-1.502.056-.64.512-1.173,1.135-1.327l36.835-9.094c.321-.08.66-.05.963.083,8.618,3.79,13.303,14.514,10.445,23.906-.154.506-.562.893-1.076,1.02l-36.833,9.084c-.119.029-.24.044-.359.044ZM532.275,205.642c5.782,4.298,8.905,12.069,7.688,19.473l33.609-8.289c1.896-7.614-1.811-16.012-8.553-19.268l-32.745,8.084Z" fill="#111111" id="BusIpMuE7A60wp4xzWyZc" />
      </g>
    </g>
    <g id="mT41sn3Qp5yHbF50nfVDu" style="isolation:isolate;">
      <g id="U0w_ECzIpg9AbcARJ_O9D">
        <path d="M445.827,257.948l-223.124-98.139c-1.789-.787-3.634-.913-5.319-.483l-17.217,4.389c1.685-.429,3.53-.304,5.319.483l223.124,98.139c4.698,2.066,7.234,7.91,5.67,13.048l-74.265,243.981c-.968,3.18-3.281,5.345-6.017,6.043l17.217-4.389c2.736-.697,5.049-2.862,6.017-6.043l74.265-243.981c1.564-5.137-.972-10.981-5.67-13.048Z" fill="url(#linearGradient_rOCMwYWS)" id="UcLW8hUY80ZMFErvbGL4_" />
        <path d="M353.997,526.908c-.669,0-1.28-.451-1.453-1.13-.205-.803.28-1.619,1.083-1.824,2.323-.592,4.174-2.471,4.953-5.026l74.265-243.98c1.349-4.43-.822-9.471-4.839-11.238l-223.124-98.139c-1.418-.623-2.915-.764-4.333-.406l-.011.003h0c-.803.204-1.62-.281-1.824-1.083s.28-1.619,1.083-1.824h0l.023-.006,17.194-4.383c2.077-.529,4.252-.334,6.293.564l223.124,98.139h0c5.36,2.358,8.277,9.023,6.501,14.857l-74.265,243.981c-1.086,3.567-3.733,6.206-7.082,7.06l-17.217,4.389c-.125.031-.249.047-.372.047ZM207.426,163.412l221.788,97.552c5.361,2.358,8.277,9.023,6.501,14.858l-74.265,243.981c-.265.869-.622,1.682-1.059,2.428l10.454-2.665c2.323-.592,4.175-2.471,4.953-5.026l74.265-243.981c1.348-4.43-.823-9.471-4.839-11.238l-223.124-98.139c-1.422-.626-2.925-.765-4.344-.403l-10.329,2.633Z" fill="#111111" id="OhPHEnqrYtSaEszBYetIx" />
      </g>
      <g id="buMPzh_ZEnlpWavupYkM">
        <path d="M428.61,262.337c4.698,2.066,7.234,7.91,5.67,13.048l-74.265,243.981c-1.564,5.137-6.636,7.625-11.334,5.558l-223.124-98.139c-4.698-2.066-7.245-7.905-5.682-13.042l74.265-243.981c1.564-5.137,6.647-7.63,11.345-5.564l223.124,98.139Z" fill="#3658C1" id="mlnKsFtPogODnyqAQwW17" />
        <path d="M352.062,527.154c-1.336,0-2.686-.286-3.984-.857l-223.124-98.139c-5.365-2.36-8.287-9.023-6.513-14.852l74.265-243.981c.908-2.981,2.857-5.288,5.49-6.497,2.493-1.145,5.296-1.146,7.894-.003l223.124,98.139c5.361,2.358,8.278,9.023,6.501,14.857l-74.265,243.981c-.907,2.98-2.854,5.287-5.484,6.494-1.245.572-2.568.857-3.904.858ZM202.108,164.972c-.914,0-1.814.194-2.66.582-1.843.846-3.218,2.495-3.872,4.644l-74.265,243.981c-1.347,4.425.829,9.464,4.851,11.233l223.124,98.139c1.802.792,3.73.799,5.429.019,1.839-.844,3.212-2.493,3.866-4.641l74.265-243.981c1.349-4.43-.822-9.471-4.839-11.238h0l-223.124-98.139c-.907-.399-1.847-.599-2.774-.599Z" fill="#111111" id="I0ClX8S65FNarlIDK1F2w" />
      </g>
    </g>
  </g><g id="XqL4DNhoZsHVDzX53aQCX">
    <path d="M20.343,344.223h0c.007-.001.014-.003.021-.005-.007.001-.014.003-.022.005Z" fill="#FFFFFF" id="ala04dQxIA8JSflWbrAPk" />
    <path d="M20.361,345.718c-.709,0-1.346-.5-1.481-1.219-.153-.808.362-1.586,1.169-1.748l.214,1.046-.025-.132.44,2.02-.236-1.025.185,1.035c-.089.016-.179.024-.267.024Z" fill="#111111" id="KqPp60KZjdiSoolwr_tX" />
  </g><g id="CfJmX7He_DFtCsmbI1gfa">
    <g id="n55C3_juTouOVbOgmijuN">
      <path d="M600.241,307.782c-.104-.444-.226-1.053-.363-1.482-.273-.87-.687-2.013-1.025-2.865-.063-.171-.455-1.117-1.408-2.712-.504-.845-1.907-3.001-4.121-4.958-.456-.406-1.327-1.166-2.703-2.059-.836-.531-2.035-1.132-2.927-1.567-13.256-5.828-26.513-11.656-39.77-17.493,0,0,0,0,0,0-.003-.001-.006-.003-.009-.004-.828-.314-1.827-.262-2.919.115-5.572,1.921-12.3,12.689-15.029,24.068-2.105,8.777-1.2,15.322,1.881,16.976,0,.002-.006.017-.006.017l.407.179c.038.014.073.036.112.049,12.423,5.474,24.844,10.928,37.266,16.392.338.141.794.346,1.141.475.555.195,1.304.445,1.876.594.606.156,1.886.482,3.546.622.976.082,2.289.105,3.269.019,1.333-.102,1.376-.118,3.525-.576l2.033-.511c.279-.086.669-.184.959-.272.924-.29,2.139-.757,3.002-1.196,1.211-.6,1.419-.734,3.002-1.796.735-.492,2.669-2.104,3.848-3.611.983-1.263,1.246-1.603,1.939-2.779.814-1.389,1.223-2.423,1.466-3.049,1.297-3.264,1.432-6.39,1.44-6.424.071-1.785.077-1.931.002-3.122-.116-1.665-.431-3.02-.432-3.03Z" fill="#FFFFFF" id="znlwF3_fByQF37pNUrR7" />
      <path d="M578.03,335.7c-.653,0-1.342-.026-1.965-.078-1.803-.153-3.198-.511-3.794-.664-.639-.166-1.44-.435-2-.632-.282-.104-.596-.238-.885-.363l-.335-.143-12.346-5.428c-8.315-3.656-16.631-7.311-24.947-10.976h0c-.042-.017-.082-.035-.108-.048l-.412-.181c-.123-.054-.234-.123-.334-.203-3.685-2.244-4.606-9.288-2.394-18.512,2.877-11.994,9.904-23.035,15.999-25.136,1.459-.504,2.786-.537,3.939-.099.029.011.059.023.088.037,12.566,5.532,25.13,11.057,37.694,16.581l2.069.91c.935.454,2.211,1.093,3.127,1.674,1.555,1.01,2.53,1.878,2.897,2.205,2.377,2.101,3.878,4.414,4.412,5.311.897,1.502,1.382,2.568,1.527,2.961.363.911.78,2.076,1.049,2.934.111.349.216.811.31,1.227l.082.361c.003.013.006.025.009.038.106.486.356,1.739.46,3.231.08,1.272.071,1.498.001,3.26-.001.027-.003.056-.006.086h0c-.073,1.093-.367,3.902-1.541,6.857-.212.548-.664,1.715-1.565,3.254-.751,1.274-1.078,1.694-2.05,2.942-1.308,1.672-3.379,3.388-4.197,3.936-1.632,1.094-1.89,1.259-3.171,1.893-1.028.523-2.378,1.019-3.218,1.282-.164.05-.335.097-.507.144-.162.044-.324.089-.458.13l-2.392.594c-1.952.416-2.111.45-3.496.556-.446.039-.981.058-1.542.058ZM532.919,314.651c.016.006.032.013.047.02,8.315,3.664,16.63,7.319,24.945,10.975l12.659,5.561c.242.104.503.217.719.297.69.242,1.314.44,1.731.549.564.145,1.744.448,3.295.58.987.083,2.199.09,3.013.02q1.199-.092,3.114-.5l.229-.049,1.979-.499c.084-.028.278-.082.473-.135.146-.04.293-.08.419-.118.929-.292,2.043-.735,2.755-1.096,1.142-.565,1.287-.658,2.847-1.704.575-.385,2.396-1.876,3.502-3.29.951-1.222,1.178-1.513,1.829-2.616.777-1.326,1.155-2.303,1.358-2.828,1.051-2.645,1.291-5.215,1.339-5.939,0-.008.001-.017.002-.027.069-1.733.073-1.84.003-2.944-.092-1.327-.326-2.465-.396-2.782-.001-.006-.003-.012-.004-.018l-.085-.373c-.074-.331-.154-.699-.243-.98-.247-.785-.644-1.895-.99-2.764-.016-.043-.344-.894-1.302-2.497-.463-.777-1.762-2.779-3.827-4.604-.55-.49-1.33-1.148-2.527-1.925-.776-.492-1.952-1.079-2.768-1.477l-2.015-.885c-12.554-5.52-25.108-11.04-37.664-16.567-.494-.168-1.13-.117-1.873.139-5.047,1.74-11.486,12.273-14.059,23-2.05,8.548-.982,14.17,1.132,15.305.035.019.068.038.101.059l.195.086c.01.004.04.018.065.029ZM532.847,314.624s0,0,0,0c0,0,0,0,0,0ZM532.833,314.62s.008.003.013.004c-.004-.001-.008-.003-.013-.004Z" fill="#111111" id="hJ8qGrjjwWOeducEP8OSV" />
    </g>
    <g id="r-D8Ip7adMQgCHuMdwdRI">
      <path d="M573.504,395.606c-.104-.444-.226-1.053-.363-1.482-.273-.87-.687-2.013-1.025-2.865-.063-.171-.455-1.117-1.408-2.712-.504-.845-1.907-3.001-4.121-4.958-.456-.406-1.327-1.166-2.703-2.059-.836-.531-2.035-1.132-2.927-1.567-13.256-5.828-26.513-11.656-39.77-17.493,0,0,0,0,0,0-.003-.001-.006-.003-.009-.004-.828-.314-1.827-.262-2.919.115-5.572,1.921-12.3,12.689-15.029,24.068-2.105,8.777-1.2,15.322,1.881,16.976,0,.002-.006.017-.006.017l.407.179c.038.014.073.036.112.049,12.423,5.474,24.844,10.928,37.266,16.392.338.141.794.346,1.141.475.555.195,1.304.445,1.876.594.606.156,1.886.482,3.546.622.976.082,2.289.105,3.269.019,1.333-.102,1.376-.118,3.525-.576l2.033-.511c.279-.086.669-.184.959-.272.924-.29,2.139-.757,3.002-1.196,1.211-.6,1.419-.734,3.002-1.796.735-.492,2.669-2.104,3.848-3.611.983-1.263,1.246-1.603,1.939-2.779.814-1.389,1.223-2.423,1.466-3.049,1.297-3.264,1.432-6.39,1.44-6.424.071-1.785.077-1.931.002-3.122-.116-1.665-.431-3.02-.432-3.03Z" fill="#FFFFFF" id="kf0kMsAlAf4PpnxNjKVlT" />
      <path d="M551.292,423.525c-.653,0-1.342-.026-1.965-.078-1.802-.152-3.198-.511-3.794-.664-.637-.165-1.438-.434-1.999-.631-.283-.105-.596-.239-.886-.363l-.335-.143-12.549-5.518c-8.248-3.626-16.496-7.251-24.744-10.886h0c-.042-.017-.082-.035-.108-.048l-.412-.181c-.123-.054-.234-.123-.333-.203-3.685-2.244-4.606-9.288-2.394-18.512,2.877-11.994,9.904-23.035,15.999-25.136,1.459-.504,2.785-.537,3.939-.099.035.013.07.028.105.045,12.862,5.663,25.723,11.317,38.584,16.972l1.161.511c.934.454,2.209,1.092,3.127,1.674,1.553,1.009,2.53,1.878,2.897,2.206,2.377,2.101,3.878,4.414,4.412,5.311.897,1.502,1.382,2.568,1.527,2.961.363.911.78,2.076,1.049,2.934.111.349.216.811.31,1.227l.082.361c.003.013.006.026.009.039.106.486.356,1.739.46,3.231.08,1.272.071,1.498.001,3.26-.001.027-.003.056-.006.086h0c-.073,1.093-.367,3.902-1.541,6.857-.212.548-.664,1.715-1.565,3.254-.751,1.274-1.078,1.694-2.05,2.942-1.308,1.672-3.379,3.388-4.197,3.936-1.632,1.094-1.89,1.259-3.171,1.893-1.026.522-2.377,1.019-3.218,1.282-.165.05-.34.098-.514.146-.16.044-.319.087-.452.128l-2.391.594c-1.952.416-2.111.45-3.496.556-.446.039-.981.058-1.542.058ZM506.182,402.476c.016.006.032.013.047.02,8.248,3.635,16.495,7.26,24.741,10.885l12.863,5.651c.242.104.504.218.719.298.691.242,1.315.44,1.731.548.564.145,1.745.449,3.295.58.987.083,2.198.09,3.013.02q1.199-.092,3.114-.5l.229-.049,1.979-.499c.083-.028.274-.081.466-.133.148-.041.297-.081.425-.12.932-.293,2.045-.735,2.756-1.097,1.143-.565,1.288-.658,2.847-1.704.575-.385,2.396-1.876,3.502-3.29.951-1.222,1.178-1.513,1.829-2.616.777-1.326,1.155-2.303,1.358-2.828,1.051-2.645,1.291-5.214,1.339-5.939,0-.008.001-.017.002-.027.069-1.733.073-1.84.003-2.944-.092-1.327-.326-2.465-.396-2.782-.001-.006-.003-.012-.004-.018l-.085-.373c-.074-.331-.154-.699-.243-.98-.247-.785-.644-1.895-.99-2.764-.016-.043-.344-.894-1.302-2.497-.463-.777-1.762-2.779-3.827-4.604-.551-.49-1.332-1.149-2.527-1.925-.869-.552-2.298-1.248-2.768-1.477l-1.075-.471c-12.877-5.662-25.755-11.323-38.633-16.994-.429-.157-1.082-.111-1.844.151-5.047,1.74-11.486,12.273-14.059,23-2.05,8.548-.982,14.17,1.132,15.305.035.019.068.038.101.059l.195.086c.01.004.04.018.065.029Z" fill="#111111" id="BlGoJH8dQk9VfLWHw6pM" />
    </g>
    <g id="ZjMpm2exP0-F39M8vBXza">
      <path d="M546.767,483.431c-.104-.444-.226-1.053-.363-1.482-.273-.87-.687-2.013-1.025-2.865-.063-.171-.455-1.117-1.408-2.712-.504-.845-1.907-3.001-4.121-4.958-.456-.406-1.327-1.166-2.703-2.059-.836-.531-2.035-1.132-2.927-1.567-13.256-5.828-26.513-11.656-39.77-17.493,0,0,0,0,0,0-.003-.001-.006-.003-.009-.004-.828-.314-1.827-.262-2.919.115-5.572,1.921-12.3,12.689-15.029,24.068-2.105,8.777-1.2,15.322,1.881,16.976,0,.002-.006.017-.006.017l.407.179c.038.014.073.036.112.049,12.423,5.474,24.844,10.928,37.266,16.392.338.141.794.346,1.141.475.555.195,1.304.445,1.876.594.606.156,1.886.482,3.546.622.976.082,2.289.105,3.269.019,1.333-.102,1.376-.118,3.525-.576l2.033-.511c.279-.086.669-.184.959-.272.924-.29,2.139-.757,3.002-1.196,1.211-.6,1.419-.734,3.002-1.796.735-.492,2.669-2.104,3.848-3.611.983-1.263,1.246-1.603,1.939-2.779.814-1.389,1.223-2.423,1.466-3.049,1.297-3.264,1.432-6.39,1.44-6.424.071-1.785.077-1.931.002-3.122-.116-1.665-.431-3.02-.432-3.03Z" fill="#FFFFFF" id="madfd5cTMbyDYnrY31124" />
      <path d="M524.555,511.349c-.654,0-1.343-.026-1.966-.078-1.798-.152-3.196-.511-3.793-.664-.638-.166-1.439-.435-2-.631-.283-.105-.596-.239-.886-.363l-.335-.143-12.241-5.382c-8.351-3.671-16.701-7.342-25.053-11.022h0c-.042-.017-.082-.035-.108-.048l-.41-.18c-.124-.055-.237-.124-.338-.206-3.683-2.246-4.603-9.289-2.391-18.51,2.876-11.994,9.904-23.035,15.998-25.135,1.459-.503,2.784-.537,3.939-.1.035.013.071.029.106.045,12.538,5.52,25.074,11.032,37.61,16.543l2.136.939c.934.454,2.209,1.092,3.127,1.674,1.553,1.008,2.529,1.878,2.896,2.205,2.376,2.1,3.877,4.413,4.412,5.31.896,1.5,1.381,2.567,1.527,2.961.363.911.78,2.077,1.049,2.934.111.35.217.812.31,1.229l.082.36c.003.012.006.025.008.037.106.485.356,1.738.46,3.232.08,1.272.071,1.498.001,3.26-.001.027-.003.056-.006.086h0c-.073,1.093-.367,3.902-1.541,6.857-.212.548-.664,1.715-1.565,3.254-.749,1.271-1.05,1.658-2.05,2.942-1.309,1.673-3.379,3.389-4.198,3.936-1.632,1.095-1.891,1.26-3.17,1.893-1.025.522-2.377,1.018-3.218,1.282-.166.05-.339.098-.513.146-.161.044-.321.088-.454.129l-2.391.594c-1.952.416-2.111.45-3.495.556-.447.039-.982.058-1.542.058ZM479.445,490.3c.016.006.032.013.047.02,8.351,3.68,16.7,7.35,25.05,11.021l12.554,5.515c.242.104.504.217.719.297.691.242,1.315.44,1.731.549.564.145,1.748.448,3.294.579.986.083,2.196.091,3.013.02q1.198-.092,3.113-.5l.229-.049,1.979-.499c.083-.028.275-.081.468-.134.148-.041.296-.081.424-.12.772-.243,1.936-.679,2.755-1.096,1.141-.565,1.286-.657,2.847-1.704.575-.385,2.396-1.875,3.502-3.29.953-1.224,1.18-1.515,1.829-2.616.778-1.326,1.156-2.304,1.359-2.829,1.051-2.645,1.291-5.214,1.339-5.939,0-.008.001-.017.002-.027.069-1.733.073-1.84.003-2.944-.092-1.329-.326-2.466-.396-2.782,0-.006-.002-.012-.003-.018l-.085-.373c-.074-.332-.154-.699-.243-.98-.247-.785-.644-1.895-.99-2.764-.016-.042-.345-.895-1.302-2.497-.463-.777-1.762-2.779-3.827-4.604-.551-.49-1.332-1.149-2.527-1.925-.777-.494-1.953-1.08-2.768-1.478l-2.082-.914c-12.543-5.515-25.085-11.029-37.629-16.552-.429-.156-1.081-.109-1.841.153-5.048,1.74-11.486,12.273-14.059,22.999-2.05,8.548-.982,14.17,1.132,15.305.035.019.069.039.103.06l.193.085c.01.004.04.018.065.029ZM479.372,490.273s0,0,0,0c0,0,0,0,0,0ZM479.359,490.269s.008.003.013.004c-.004-.001-.008-.003-.013-.004Z" fill="#111111" id="sTd4jXem2Kk47lzsdiQxl" />
    </g>
    <g id="jg_T91_fTfl3JNpmXvoP_">
      <path d="M520.03,571.255c-.104-.444-.226-1.053-.363-1.482-.273-.87-.687-2.013-1.025-2.865-.063-.171-.455-1.117-1.408-2.712-.504-.845-1.907-3.001-4.121-4.958-.456-.406-1.327-1.166-2.703-2.059-.836-.531-2.035-1.132-2.927-1.567-13.256-5.828-26.513-11.656-39.77-17.493,0,0,0,0,0,0-.003-.001-.006-.003-.009-.004-.828-.314-1.827-.262-2.919.115-5.572,1.921-12.3,12.689-15.029,24.068-2.105,8.777-1.2,15.322,1.881,16.976,0,.002-.006.017-.006.017l.407.179c.038.014.073.036.112.049,12.423,5.474,24.844,10.928,37.266,16.392.338.141.794.346,1.141.475.555.195,1.304.445,1.876.594.606.156,1.886.482,3.546.622.976.082,2.289.105,3.269.019,1.333-.102,1.376-.118,3.525-.576l2.033-.511c.279-.086.669-.184.959-.272.924-.29,2.139-.757,3.002-1.196,1.211-.6,1.419-.734,3.002-1.796.735-.492,2.669-2.104,3.848-3.611.983-1.263,1.246-1.603,1.939-2.779.814-1.389,1.223-2.423,1.466-3.049,1.297-3.264,1.432-6.39,1.44-6.424.071-1.785.077-1.931.002-3.122-.116-1.665-.431-3.02-.432-3.03Z" fill="#FFFFFF" id="zBlZDcbQ80OwqmY-fVcdO" />
      <path d="M497.818,599.174c-.654,0-1.343-.026-1.966-.078-1.797-.152-3.196-.511-3.793-.664-.638-.166-1.439-.435-2-.631-.283-.105-.596-.239-.886-.363l-.335-.143-12.344-5.427c-8.316-3.656-16.632-7.312-24.95-10.977h0c-.042-.018-.083-.036-.109-.049l-.41-.18c-.124-.055-.237-.124-.338-.206-3.683-2.247-4.603-9.289-2.391-18.51,2.876-11.994,9.903-23.034,15.998-25.136,1.459-.504,2.785-.537,3.939-.099.032.012.064.026.097.041,12.541,5.521,25.079,11.034,37.619,16.547l2.136.939c.937.456,2.215,1.095,3.127,1.675,1.553,1.008,2.529,1.877,2.896,2.205,2.376,2.099,3.877,4.413,4.412,5.31,1.097,1.836,1.485,2.848,1.526,2.957.368.925.784,2.091,1.05,2.939.111.349.217.811.31,1.228l.082.36c.003.012.006.025.008.037.106.485.356,1.738.46,3.232.08,1.272.071,1.498.001,3.26-.001.027-.003.056-.006.086h0c-.073,1.093-.367,3.902-1.541,6.857-.212.548-.663,1.715-1.565,3.254-.749,1.27-1.05,1.658-2.05,2.942-1.309,1.673-3.379,3.389-4.198,3.936-1.631,1.094-1.889,1.259-3.17,1.893-1.027.523-2.378,1.019-3.218,1.282-.165.05-.336.097-.509.145-.161.044-.322.088-.456.129l-2.392.594c-1.952.416-2.111.45-3.495.556-.447.039-.982.058-1.542.058ZM452.711,578.127c.015.006.029.012.043.018,8.316,3.665,16.632,7.32,24.947,10.976l12.657,5.56c.242.104.504.217.719.297.691.242,1.315.44,1.731.548.565.145,1.748.449,3.294.579.986.083,2.196.091,3.013.02q1.198-.092,3.113-.5l.229-.049,1.979-.499c.083-.028.277-.082.471-.135.147-.04.294-.081.421-.119.931-.292,2.044-.735,2.755-1.096,1.142-.565,1.287-.658,2.846-1.704.575-.385,2.396-1.875,3.503-3.289.953-1.224,1.18-1.516,1.828-2.616.778-1.327,1.156-2.304,1.359-2.828,1.051-2.645,1.291-5.215,1.339-5.939,0-.008.001-.017.002-.027.069-1.733.073-1.84.003-2.944-.092-1.328-.326-2.466-.396-2.782,0-.006-.002-.012-.003-.018l-.085-.373c-.074-.332-.154-.699-.243-.98-.244-.777-.641-1.886-.99-2.765-.014-.038-.346-.896-1.302-2.496-.464-.778-1.763-2.78-3.827-4.604-.551-.49-1.332-1.149-2.527-1.925-.772-.491-1.95-1.079-2.768-1.478l-2.033-.892c-12.557-5.521-25.114-11.042-37.672-16.571-.429-.159-1.083-.113-1.847.15-5.048,1.741-11.486,12.273-14.059,23-2.05,8.548-.982,14.169,1.132,15.305.035.019.07.039.103.06l.193.085c.011.005.043.019.069.031ZM452.642,578.101s0,0,0,0c0,0,0,0,0,0ZM452.638,578.099s.002,0,.003.001c0,0-.002,0-.003-.001ZM452.634,578.098s.002,0,.003.001c0,0-.002,0-.003-.001ZM452.629,578.096s.003,0,.004.001c0,0-.002,0-.004-.001Z" fill="#111111" id="splSTEIpZRxOfK5AgrA0K" />
    </g>
  </g><g id="Fpg__ushyAZwJCr4PrJu7">
    <path d="M274.762,18.903c-.39-1.635-.446-1.84-.832-2.931-.353-.994-.768-1.938-1.218-2.799-1.377-2.626-2.739-4.11-3.637-5.1-1.325-1.443-3.255-2.832-3.932-3.235-.857-.517-2.016-1.168-2.927-1.568-.796-.368-1.904-.747-2.742-.988-1.148-.341-3.026-.746-5.462-.779-.59-.013-1.377.006-1.958.081-.395.043-.854.116-1.312.188-.175.03-.34.037-.515.067-.459.072-.925.179-1.368.294l-2.033.512c-.754.216-1.755.504-2.478.805q-1.572.661-3.15,1.568c-.481.275-1.101.699-1.54,1.047-.746.593-1.721,1.433-2.414,2.098-.502.488-1.808,1.854-3.157,4.135-.262.451-.606,1.055-.821,1.534-.389.909-.865,2.139-1.186,3.063-.986,3.263-2.31,7.608-3.308,10.861-.986,3.263-3.307,10.872-3.307,10.872l-3.306,10.883-.961,3.14c-.911,2.296,3.111,5.962,10.862,9.371,10.276,4.52,23.202,6.867,28.868,5.242,1.324-.38,2.115-.948,2.449-1.645.012-.013.045-.018.05-.033.011-.037.023-.074.034-.111h0c3.608-11.854,7.21-23.7,10.82-35.556.596-1.965.856-3.849.9-4.865.076-1.741.089-1.921.002-3.122-.115-1.654-.42-3.02-.421-3.031Z" fill="#FFFFFF" id="oiVIWUf13DwplkoX81laJ" />
    <path d="M256.332,69.28c-6.784,0-16.557-2.224-24.875-5.883-8.675-3.815-12.923-7.905-11.677-11.233l4.251-13.97s2.32-7.608,3.306-10.871c1-3.258,2.323-7.6,3.309-10.861.351-1.013.843-2.284,1.243-3.219.246-.549.593-1.165.902-1.697,1.382-2.336,2.728-3.794,3.408-4.456.704-.674,1.692-1.534,2.528-2.197.513-.406,1.19-.867,1.728-1.174,1.626-.933,1.688-.964,3.314-1.648.808-.337,1.87-.642,2.646-.864l2.08-.525c.555-.144,1.049-.25,1.5-.321.097-.017.212-.03.327-.043.055-.006.11-.011.166-.021.505-.08.988-.156,1.405-.202.841-.109,1.862-.097,2.154-.09,2.616.035,4.63.476,5.856.84.82.236,2.033.643,2.945,1.065,1.149.504,2.532,1.318,3.072,1.645.716.426,2.796,1.908,4.262,3.505.995,1.097,2.418,2.667,3.86,5.418.497.951.935,1.957,1.303,2.994.411,1.163.485,1.441.877,3.085.004.016.007.032.011.047.081.379.342,1.69.448,3.229.09,1.235.077,1.518.009,3.088l-.009.202c-.051,1.163-.331,3.149-.963,5.235l-10.86,35.685c-.056.174-.146.338-.262.482-.584.998-1.677,1.732-3.252,2.184-1.352.387-3.058.572-5.01.572ZM253.659,3c-.529,0-1.055.027-1.413.073-.402.044-.836.114-1.27.182-.097.017-.212.031-.328.043-.055.006-.11.011-.166.021-.375.059-.775.146-1.246.268l-2.043.515c-.658.189-1.623.466-2.266.735q-1.482.624-2.981,1.484c-.407.233-.964.612-1.355.922-.755.6-1.684,1.407-2.308,2.005-.453.441-1.66,1.713-2.904,3.815-.157.271-.54.93-.743,1.383-.366.855-.827,2.047-1.138,2.942-.968,3.207-2.292,7.554-3.292,10.809-.985,3.258-3.306,10.87-3.306,10.87l-4.267,14.024c-.012.039-.025.077-.041.114-.272.686,1.61,3.723,10.072,7.445,9.817,4.318,22.572,6.688,27.851,5.173,1.185-.34,1.455-.738,1.51-.852.017-.034.034-.067.052-.099l10.769-35.389c.552-1.82.795-3.558.836-4.493l.009-.202c.066-1.521.073-1.679-.004-2.746-.093-1.353-.321-2.494-.389-2.812-.378-1.585-.424-1.744-.782-2.759-.321-.902-.703-1.78-1.134-2.605-1.264-2.41-2.482-3.755-3.372-4.736-1.2-1.308-2.981-2.616-3.634-3.005-1.029-.621-2.059-1.174-2.763-1.483-.786-.364-1.862-.721-2.554-.92-1.056-.313-2.781-.689-5.067-.72-.11-.002-.221-.004-.333-.004Z" fill="#111111" id="YLTbQhrXby0pgl2BMaj_f" />
  </g><g id="AMDc-HdmDzqjTOE1K09JP">
    <path d="M354.766,54.091c-.375-1.592-.435-1.841-.822-2.932-.352-.983-.767-1.927-1.218-2.799-1.388-2.625-2.801-4.17-3.635-5.09-1.337-1.453-3.266-2.83-3.933-3.246-.856-.517-2.026-1.155-2.927-1.568-.806-.356-1.914-.734-2.752-.987-1.148-.341-3.026-.746-5.462-.779-.59-.013-1.377.007-1.958.081-.395.043-.854.116-1.312.2-.635.081-1.267.194-1.894.352l-2.022.511c-.754.216-1.767.505-2.478.805q-1.572.661-3.15,1.568c-.481.275-1.101.698-1.54,1.047-.757.594-1.731,1.434-2.414,2.098-.502.488-1.819,1.855-3.157,4.135-.273.452-.607,1.055-.821,1.534-.389.909-.865,2.139-1.186,3.063-.997,3.264-2.31,7.608-3.308,10.861-.499,1.632-1.16,3.805-1.648,5.436-.998,3.264-2.321,7.609-3.318,10.874-.747,2.453-1.671,5.5-2.515,8.249,0,0,.014.006.016.007-.673,2.304,3.33,5.878,10.905,9.211,10.276,4.52,23.202,6.867,28.868,5.242,1.482-.425,2.306-1.084,2.553-1.899.004-.007.02-.01.023-.018.235-.773.47-1.546.703-2.32.997-3.264,2.319-7.62,3.317-10.885.987-3.263,2.31-7.608,3.307-10.872l3.243-10.643s.026-.07.065-.218c.595-1.965.857-3.838.901-4.854.076-1.741.077-1.93,0-3.133-.115-1.654-.42-3.02-.432-3.03Z" fill="#FFFFFF" id="QPAEWxudxHu1Tmg3PsXQ" />
    <path d="M336.488,103.977c-6.784,0-16.557-2.224-24.875-5.883-3.904-1.717-12.737-6.148-11.812-10.719.009-.105.029-.21.061-.311.587-1.915,1.214-3.975,1.793-5.878l4.039-13.242c.486-1.625,1.148-3.801,1.648-5.436.587-1.912,1.282-4.198,1.958-6.421l1.351-4.44c.349-1.008.841-2.279,1.242-3.215.322-.722.782-1.498.916-1.719,1.345-2.291,2.705-3.762,3.395-4.434.698-.678,1.692-1.542,2.535-2.203.503-.399,1.181-.86,1.721-1.168,1.626-.934,1.688-.964,3.314-1.648.78-.329,1.835-.632,2.606-.853l2.108-.534c.664-.167,1.341-.293,2.072-.386.414-.078.91-.156,1.336-.203.841-.108,1.862-.096,2.154-.09,2.617.035,4.631.477,5.857.841.407.122,1.806.555,2.932,1.053.897.411,2.106,1.057,3.096,1.656.637.396,2.747,1.867,4.262,3.514.921,1.015,2.398,2.645,3.857,5.404.503.974.94,1.978,1.304,2.996.408,1.151.483,1.455.869,3.093l-.01.002c.182.561.358,1.528.479,3.268.08,1.253.08,1.5.001,3.302-.05,1.155-.33,3.134-.964,5.224-.049.187-.091.297-.091.297l-3.218,10.566c-.997,3.265-2.32,7.607-3.306,10.869l-4.021,13.208c-.026.087-.062.171-.104.251-.477,1.244-1.65,2.141-3.495,2.67-1.351.387-3.057.572-5.01.572ZM302.795,87.729c-.01.067-.024.135-.044.201-.207.707,1.796,3.779,10.069,7.417,9.817,4.318,22.57,6.686,27.85,5.173,1.02-.292,1.462-.664,1.532-.892.021-.068.046-.135.076-.199.002-.004.003-.007.005-.011l3.962-13.015c.986-3.26,2.31-7.606,3.307-10.873l3.293-10.809c.568-1.875.812-3.606.852-4.534.074-1.703.074-1.842.002-2.972-.092-1.325-.32-2.469-.375-2.706-.007-.025-.014-.05-.02-.075-.365-1.55-.412-1.75-.775-2.774-.318-.888-.701-1.769-1.137-2.612-1.276-2.414-2.595-3.868-3.383-4.737-1.206-1.312-3.006-2.616-3.646-3.014-.871-.526-1.986-1.124-2.759-1.477-.751-.332-1.818-.691-2.56-.914-1.039-.309-2.764-.685-5.051-.716-.629-.013-1.313.014-1.746.069-.39.043-.812.11-1.232.188-.692.09-1.254.194-1.798.331l-2.021.51c-.691.199-1.646.473-2.261.733q-1.488.626-2.987,1.486c-.409.234-.966.613-1.355.921-.761.597-1.683,1.398-2.301,1.998-.581.565-1.733,1.815-2.909,3.818-.238.395-.551.954-.745,1.386-.367.857-.828,2.049-1.139,2.943l-1.333,4.382c-.676,2.226-1.372,4.515-1.959,6.428-.497,1.627-1.158,3.797-1.645,5.425l-4.041,13.248c-.558,1.834-1.16,3.815-1.729,5.671ZM301.296,87.503h.01-.01Z" fill="#111111" id="z7tv9q109Nv-IWYNcS9B0" />
  </g><g id="j7y_vvuxMADwrvabFRa3i">
    <path d="M434.783,89.288c-.391-1.635-.435-1.841-.821-2.932-.447-1.24-.908-2.2-1.229-2.798-1.377-2.626-2.739-4.11-3.637-5.1-1.325-1.443-3.255-2.831-3.933-3.246-.855-.506-2.027-1.155-2.938-1.567-.795-.357-1.892-.737-2.731-.989-1.147-.33-3.026-.746-5.473-.778-.578-.003-1.365.016-1.947.08-.394.054-.852.127-1.311.199-.645.093-1.278.196-1.894.352l-2.02.521c-.755.205-1.768.494-2.489.806q-1.561.66-3.139,1.566c-.481.275-1.102.687-1.542,1.036-.756.605-1.731,1.434-2.424,2.11-.503.477-1.808,1.854-3.157,4.135-.263.44-.607,1.055-.81,1.533-.39.898-.866,2.128-1.186,3.063-.999,3.254-2.322,7.598-3.308,10.861-.998,3.264-2.321,7.609-3.307,10.872-.998,3.264-2.321,7.609-3.317,10.885-.303.988-.629,2.068-.981,3.207,0,0,.011.004.011.004-.992,2.292,3.026,5.986,10.834,9.42,10.276,4.52,23.202,6.867,28.868,5.242,1.452-.417,2.278-1.056,2.544-1.848.004-.007.021-.008.023-.016,3.613-11.869,7.22-23.731,10.835-35.603.606-1.966.866-3.85.911-4.866.075-1.741.078-1.919.002-3.122-.118-1.687-.431-3.019-.432-3.03Z" fill="#FFFFFF" id="Fhpmnzp0XYwyQthJAG5qi" />
    <path d="M416.305,139.787c-6.784,0-16.557-2.224-24.875-5.883-8.622-3.792-12.858-7.84-11.699-11.153.007-.03.016-.06.025-.089.232-.749.452-1.472.662-2.16l.318-1.042c.995-3.273,2.319-7.619,3.316-10.884.985-3.26,2.31-7.607,3.308-10.873.985-3.261,2.31-7.608,3.309-10.863.346-1.015.84-2.291,1.245-3.221.271-.636.718-1.405.898-1.705,1.52-2.568,2.996-4.057,3.412-4.452.931-.909,2.164-1.909,2.519-2.193.483-.383,1.162-.839,1.735-1.167,1.623-.932,1.685-.963,3.298-1.646.795-.344,1.851-.647,2.681-.872l2.038-.526c.709-.18,1.407-.291,2.056-.385.458-.073.921-.146,1.32-.201.851-.094,1.865-.096,2.16-.094,2.069.027,4.043.308,5.879.836.837.252,2.032.659,2.931,1.063,1.209.545,2.669,1.396,3.087,1.644.784.479,2.834,1.953,4.274,3.523.994,1.096,2.417,2.667,3.86,5.418.321.599.817,1.616,1.312,2.986.401,1.134.475,1.441.828,2.918l.042.174c.003.014.006.028.009.042.106.48.354,1.723.46,3.232.083,1.298.077,1.534,0,3.292-.051,1.171-.334,3.162-.976,5.243l-10.833,35.598c-.031.1-.072.197-.123.288-.5,1.197-1.665,2.064-3.465,2.581-1.351.387-3.057.572-5.01.572ZM382.677,123.366c-.02.116-.054.23-.102.34-.282.651,1.647,3.751,10.062,7.451,9.818,4.318,22.57,6.687,27.85,5.173,1.012-.29,1.459-.657,1.536-.884.02-.06.043-.118.071-.175l10.773-35.404c.561-1.816.807-3.555.848-4.494.074-1.722.075-1.833.003-2.962-.094-1.343-.326-2.468-.395-2.78,0-.004-.002-.008-.003-.011l-.038-.159c-.353-1.475-.389-1.629-.735-2.605-.452-1.254-.906-2.161-1.136-2.589-1.272-2.426-2.491-3.771-3.381-4.752-1.276-1.391-3.119-2.7-3.649-3.024-1.01-.598-2.054-1.155-2.773-1.479-.765-.344-1.817-.701-2.546-.92-1.562-.449-3.27-.691-5.061-.714-.506,0-1.246.015-1.763.072-.34.047-.784.118-1.228.188-.601.087-1.205.183-1.773.327l-2.014.52c-.658.179-1.631.454-2.268.73q-1.489.63-2.988,1.491c-.442.252-.999.626-1.357.91-.671.537-1.634,1.35-2.308,2.008-.261.247-1.554,1.527-2.914,3.825-.312.521-.58,1.025-.72,1.356-.38.875-.839,2.06-1.147,2.961-.983,3.207-2.306,7.549-3.292,10.81-.999,3.268-2.322,7.611-3.308,10.873-.999,3.268-2.322,7.612-3.318,10.887l-.317,1.04c-.194.636-.396,1.302-.609,1.99Z" fill="#111111" id="hUsHGIOfBrbWTL9wf5Ajz" />
  </g><g id="nBil23lHPoBuzrXSm8hS">
    <path d="M514.798,124.475c-.386-1.591-.446-1.84-.833-2.931-.446-1.229-.907-2.2-1.218-2.799-1.387-2.625-2.739-4.11-3.646-5.088-1.326-1.454-3.255-2.831-3.934-3.246-.846-.519-2.015-1.157-2.927-1.568-.794-.357-1.904-.746-2.741-.988-1.137-.342-3.015-.747-5.462-.778-.59-.013-1.366.005-1.947.08-.406.045-.854.116-1.322.201-.636.081-1.267.195-1.884.351l-2.033.512c-.754.216-1.756.504-2.478.805q-1.572.661-3.139,1.566c-.491.287-1.112.7-1.551,1.048-.746.593-1.721,1.433-2.414,2.097-.502.489-1.808,1.854-3.157,4.135-.261.451-.606,1.055-.808,1.544-.401.9-.879,2.118-1.198,3.053v.011c-.486,1.631-1.149,3.792-1.648,5.425-.998,3.264-2.321,7.609-3.309,10.861-.499,1.633-1.16,3.805-1.659,5.437-.986,3.264-2.32,7.62-3.306,10.883l-.981,3.207s.007.003.008.003c-.767,2.301,3.247,5.913,10.893,9.277,10.276,4.52,23.202,6.867,28.868,5.242,1.518-.435,2.34-1.116,2.565-1.959.004-.007.021-.009.024-.017,1.378-4.536,2.761-9.071,4.142-13.611l3.307-10.872,3.308-10.861c.595-1.965.857-3.838.901-4.854.076-1.741.088-1.932,0-3.133-.117-1.676-.42-3.02-.421-3.031Z" fill="#FFFFFF" id="XPjHVgxfq2WS0Dwhsi3CC" />
    <path d="M496.374,174.828c-6.784,0-16.557-2.224-24.875-5.883-8.378-3.685-12.646-7.654-11.771-10.928.01-.054.024-.109.04-.163l.981-3.207c.489-1.619,1.066-3.513,1.643-5.408.583-1.914,1.166-3.83,1.661-5.47l1.661-5.441c.987-3.25,2.311-7.596,3.309-10.861l.245-.801c.445-1.458.966-3.162,1.373-4.52.012-.055.027-.108.044-.161.341-.997.831-2.245,1.249-3.18.205-.498.545-1.107.88-1.684,1.383-2.338,2.729-3.795,3.409-4.458.703-.674,1.691-1.533,2.528-2.197.559-.443,1.258-.894,1.727-1.168,1.625-.939,1.687-.97,3.314-1.654.809-.337,1.871-.642,2.646-.864l2.08-.524c.641-.162,1.334-.292,2.06-.384.427-.079.91-.156,1.348-.204.833-.107,1.852-.095,2.145-.088,2.641.034,4.646.476,5.86.841.965.278,2.12.695,2.924,1.056.905.408,2.12,1.058,3.096,1.657.615.376,2.724,1.832,4.258,3.514.874.942,2.351,2.535,3.864,5.398.334.645.826,1.677,1.302,2.989.418,1.18.498,1.509.881,3.089.004.02.009.039.013.058.102.482.342,1.725.447,3.221.09,1.247.078,1.537.008,3.148l-.007.155c-.05,1.152-.329,3.129-.963,5.223l-10.759,35.346c-.023.077-.053.153-.089.225-.336.942-1.231,2.101-3.521,2.758-1.351.387-3.057.572-5.01.572ZM462.682,158.586c-.012.062-.028.123-.049.184-.232.698,1.723,3.756,10.074,7.429,9.817,4.318,22.571,6.688,27.85,5.173,1.03-.295,1.467-.671,1.529-.904.025-.094.06-.187.103-.274l10.693-35.138c.554-1.827.797-3.556.837-4.482l.007-.156c.069-1.596.075-1.726-.003-2.803-.095-1.355-.321-2.492-.388-2.808,0,0,0-.002,0-.003-.373-1.537-.422-1.74-.783-2.759-.417-1.149-.848-2.054-1.135-2.61-1.324-2.504-2.633-3.915-3.415-4.759-1.199-1.315-2.984-2.6-3.616-2.986-.867-.531-1.976-1.126-2.762-1.48-.674-.303-1.696-.671-2.54-.914-.86-.258-2.638-.688-5.066-.72-.63-.014-1.308.013-1.736.068-.401.044-.815.111-1.247.189-.683.089-1.256.196-1.782.329l-2.035.512c-.657.189-1.623.466-2.267.735q-1.48.623-2.965,1.481c-.463.271-1.016.644-1.369.924-.758.602-1.686,1.408-2.309,2.005-.453.441-1.66,1.713-2.904,3.816-.183.316-.537.926-.712,1.352-.38.853-.823,1.976-1.131,2.866-.005.019-.01.038-.016.056-.412,1.378-.949,3.135-1.407,4.632l-.245.801c-.998,3.264-2.32,7.608-3.308,10.859l-1.66,5.439c-.495,1.637-1.079,3.555-1.662,5.471-.577,1.894-1.152,3.786-1.643,5.408l-.938,3.066Z" fill="#111111" id="ViEHxOYlUKTOyXSs7_zzf" />
  </g></g></g><g transform="translate(1374 1121) rotate(0.6722446440644365 114 110.5)" data-asset-index="2"><g clip-path="url(#assetClipPath_v_4W7f7R)" transform="scale(0.9936025938257187 0.9962673783291559)" data-asset-index="2"><g id="uP0pJGBM29mzPM8W9lyck">
    <path d="M62.861,92.349c22.504-31.826,39.543-55.709,47.349-68.024l.215.094c-.445,13.947.648,40.349,2.198,89.817l-49.761-21.887M128.334,12.305L103.768,1.5,1.5,142.12l19.868,8.739,30.786-42.134,60.062,26.418,2.104,56.601,21.273,9.357-7.259-188.794" fill="#FFFFFF" id="gcN-lSkI7ysOFdqQfEu-d" />
    <path d="M135.593,202.6c-.205,0-.411-.042-.604-.127l-21.273-9.357c-.526-.231-.874-.743-.895-1.317l-2.069-55.662-58.098-25.554-30.075,41.161c-.416.568-1.17.772-1.815.488L.896,143.493c-.416-.183-.726-.544-.844-.982-.118-.438-.032-.906.235-1.273L102.555.618c.415-.571,1.171-.775,1.817-.491l24.566,10.805c.525.231.873.742.895,1.315l7.259,188.794c.02.517-.228,1.007-.655,1.298-.253.172-.547.26-.844.26ZM115.784,190.748l18.219,8.013-7.131-185.461-22.601-9.941L3.808,141.496l17.06,7.504,30.075-41.161c.415-.569,1.17-.772,1.815-.488l60.062,26.418c.526.231.874.743.895,1.317l2.069,55.662ZM112.623,115.736c-.205,0-.411-.042-.604-.127l-49.762-21.887c-.412-.181-.721-.538-.841-.972-.121-.434-.04-.899.221-1.267l8.482-11.99c18.608-26.292,32.052-45.289,38.824-55.972.397-.626,1.192-.868,1.871-.57l.215.094c.561.247.915.809.895,1.421-.352,11.03.273,30.229,1.309,62.035.271,8.315.57,17.513.889,27.687.016.515-.233,1.002-.66,1.29-.252.17-.545.257-.839.257ZM65.147,91.715l45.902,20.189c-.291-9.233-.564-17.644-.814-25.305-.9-27.664-1.491-45.807-1.399-57.392-7.37,11.187-19.799,28.75-36.268,52.019l-7.421,10.489Z" fill="#111111" id="zQPyjeZsV-66Tz3FHZJ_X" />
  </g><g id="GBkMiRAvVVt0jKlN_FX8Q">
    <polyline points="227.968 56.128 208.011 47.351 159.353 211.55 179.309 220.328 227.968 56.128" fill="#FFFFFF" id="VqeuLAxJ8gYq44W87fc2" />
    <path d="M179.309,221.828c-.206,0-.412-.042-.604-.127l-19.956-8.778c-.691-.304-1.049-1.075-.834-1.799l48.658-164.199c.122-.413.416-.753.807-.935.391-.181.841-.186,1.235-.012l19.957,8.778c.691.304,1.049,1.075.834,1.799l-48.659,164.199c-.122.413-.416.753-.807.935-.2.093-.416.139-.631.139ZM161.166,210.709l17.188,7.56,47.8-161.3-17.188-7.56-47.799,161.3Z" fill="#111111" id="zUCiV7rMm_W0SV4_dcukJ" />
  </g></g></g><g transform="translate(167 602)" data-asset-index="3"><g clip-path="url(#assetClipPath_r3ZIK1D9)" transform="scale(1.071995144565145 1.0719454022475121)" data-asset-index="3"><linearGradient id="linearGradient_Dd_pJbgX" gradientTransform="matrix(.99863865 -.05216166 .05216166 .99863865 -172.217 -50.032)" gradientUnits="userSpaceOnUse" x1="918.683" x2="748.451" y1="183.363" y2="539.294"><stop offset=".326" stop-color="#3658C1" /><stop offset=".769" stop-color="#B0C3FF" /><stop offset="1" stop-color="#3658C1" /></linearGradient><path d="m2.017 639.15c2.48-7.743 7.731-14.432 13.656-19.859a77.954 77.954 0 0 1 6.259-5.174l231.912-171.69c-1.144 8.841 24.627 43.659 33.282 44.96-2.058 1.476-232.032 171.871-233.967 173.163a79.16 79.16 0 0 1 -8.349 5c-20.057 12.15-49.681 2.444-42.793-26.4z" fill="#3658C1" id="cPyxuRlogpSSV7ItJagYp" /><path d="m26.53 671.7a29.2 29.2 0 0 1 -17.24-5.248c-8.139-5.939-11.067-15.717-8.245-27.534q.009-.036.021-.072c2.263-7.07 6.951-13.9 13.931-20.292a78.818 78.818 0 0 1 6.326-5.229l231.926-171.7a1 1 0 0 1 1.587.932c-1.064 8.217 24.4 42.635 32.439 43.843a1 1 0 0 1 .434 1.8c-.749.537-32.095 23.751-71.779 53.141-71.717 53.11-160.97 119.209-162.217 120.041a80.718 80.718 0 0 1 -8.448 5.061 36.438 36.438 0 0 1 -18.735 5.257zm-23.548-32.281c-2.609 10.964.05 19.99 7.488 25.416 8.971 6.547 22.881 6.489 33.823-.138a79.376 79.376 0 0 0 8.3-4.97c1.456-.99 94.333-69.772 162.148-119.995 34.968-25.9 63.461-47 70.269-52.027-9.768-4.8-30.3-32.54-32.074-43.36l-230.41 170.576a76.9 76.9 0 0 0 -6.164 5.094c-6.722 6.159-11.219 12.685-13.38 19.404z" fill="#111111" id="xiubFqkvROLuhwePZp4xz" /><ellipse cx="270.485" cy="464.907" fill="#FFFFFF" rx="4.85" ry="27.962" transform="matrix(.80372188 -.59500516 .59500516 .80372188 -223.533 252.195)" id="AQXErBs86zr_xK3nm99Z4" /><path d="m286.525 488.571a5.121 5.121 0 0 1 -2.393-.777c-5.417-3.025-16.224-15.455-24.092-27.71-3.665-5.709-9.454-15.672-7.038-18.241.8-.855 2.095-.8 3.836.177 5.415 3.023 16.223 15.453 24.093 27.709 3.665 5.709 9.454 15.671 7.037 18.242a1.9 1.9 0 0 1 -1.443.6zm-32.058-45.326a.315.315 0 0 0 -.063 0c-.417.675.727 5.485 7.32 15.754 7.717 12.022 18.208 24.154 23.383 27.044 1.078.6 1.454.519 1.459.516.417-.675-.726-5.485-7.319-15.754-7.72-12.023-18.21-24.155-23.384-27.044a3.193 3.193 0 0 0 -1.396-.516z" fill="#111111" id="sn2nCFLRO23KbIkLsQveb" /><ellipse cx="412.824" cy="359.53" fill="#FFFFFF" rx="4.85" ry="27.962" transform="matrix(.80372188 -.59500516 .59500516 .80372188 -132.894 316.204)" id="UhOsS1bxslkFjUGljwEIq" /><path d="m428.863 383.194a5.121 5.121 0 0 1 -2.392-.777c-5.417-3.024-16.225-15.455-24.092-27.709-3.666-5.709-9.455-15.671-7.038-18.242.8-.855 2.095-.8 3.836.177 5.417 3.025 16.223 15.455 24.092 27.71 3.666 5.709 9.455 15.671 7.038 18.241a1.9 1.9 0 0 1 -1.444.6zm-32.057-45.326a.315.315 0 0 0 -.063 0c-.417.675.726 5.486 7.32 15.754 7.717 12.022 18.208 24.154 23.382 27.044 1.079.6 1.454.518 1.459.516.417-.674-.725-5.485-7.319-15.754-7.718-12.022-18.208-24.154-23.383-27.044a3.2 3.2 0 0 0 -1.396-.516z" fill="#111111" id="LXFWuFACRFL3v-srGaLH4" /><path d="m253.406 443.97a1.694 1.694 0 0 1 .438-1.543l142.339-105.377c-3.586 6.5 27.038 47.1 33.282 44.96l-142.339 105.377c-.464.344-1.294.211-2.507-.466-9.766-6.475-28.226-30.189-31.213-42.951z" fill="#FFFFFF" id="JjjJCZqXfCTCwHW1aGBj" /><path d="m286.5 488.571a5.23 5.23 0 0 1 -2.369-.777c-10.316-6.836-28.739-30.945-31.7-43.6a.94.94 0 0 1 -.025-.159 2.585 2.585 0 0 1 .84-2.415l142.34-105.377a1 1 0 0 1 1.471 1.286c-1.657 3 7.222 18.286 18.268 31.453 8.665 10.327 12.823 12.418 13.815 12.078a1 1 0 0 1 .918 1.75l-142.337 105.38a2 2 0 0 1 -1.221.381zm-32.1-44.746c2.935 12.307 20.81 35.658 30.772 42.262 1.014.564 1.39.48 1.394.477l140.453-103.987c-3.749-1.683-9.019-7.294-13.224-12.306-6.383-7.608-17.983-23.617-18.834-31.072l-140.522 104.031a2.148 2.148 0 0 0 -.039.595z" fill="#111111" id="falM0l6oI7I-3kevQXZoM" /><path d="m494.321 398.164 24.727 11.265c-27.28-12.428-51.373-32.8-69.093-60.607-52.6-82.558-29.143-199.474 52.438-261.1 54.126-40.886 120.2-47.179 173.908-22.71l-24.726-11.261c-53.712-24.47-119.782-18.176-173.908 22.709-81.581 61.624-105.04 178.539-52.438 261.1 17.719 27.811 41.812 48.179 69.092 60.607" fill="#FFFFFF" id="fi-htBaGolm1HTeh0rIUC" /><path d="m519.047 410.429a1 1 0 0 1 -.414-.09l-24.727-11.265a162.435 162.435 0 0 1 -69.521-60.98c-52.805-82.877-29.173-200.6 52.68-262.432 26.26-19.837 56.549-32.306 87.59-36.058a163.272 163.272 0 0 1 87.334 13.237l24.727 11.264a1 1 0 0 1 -.83 1.821 161.235 161.235 0 0 0 -86.264-13.071c-30.691 3.709-60.646 16.045-86.622 35.667-81.039 61.216-104.454 177.744-52.2 259.763a160.444 160.444 0 0 0 68.664 60.234 1 1 0 0 1 -.416 1.91zm65.745-370.04a165.743 165.743 0 0 0 -19.9 1.2c-30.692 3.711-60.642 16.044-86.622 35.669-81.04 61.215-104.456 177.742-52.198 259.762a160.431 160.431 0 0 0 68.664 60.234l1.961.894a164.574 164.574 0 0 1 -47.586-48.789c-52.8-82.877-29.172-200.6 52.679-262.432 26.262-19.838 56.551-32.306 87.592-36.058a164.91 164.91 0 0 1 63.634 4.638l-1.857-.846a159.982 159.982 0 0 0 -66.367-14.272z" fill="#111111" id="OVF57JT0mOIj8N1p56z3" /><path d="m494.321 398.164 24.727 11.265c-27.28-12.428-51.373-32.8-69.093-60.607-52.6-82.558-29.143-199.474 52.438-261.1 54.126-40.886 120.2-47.179 173.908-22.71l-24.726-11.261c-53.712-24.47-119.782-18.176-173.908 22.709-81.581 61.624-105.04 178.539-52.438 261.1 17.719 27.811 41.812 48.179 69.092 60.607" fill="#FFFFFF" id="g93jypmZN75IRTOKnvDGe" /><path d="m519.047 410.429a1 1 0 0 1 -.414-.09l-24.727-11.265a162.435 162.435 0 0 1 -69.521-60.98c-52.805-82.877-29.173-200.6 52.68-262.432 26.26-19.837 56.549-32.306 87.59-36.058a163.272 163.272 0 0 1 87.334 13.237l24.727 11.264a1 1 0 0 1 -.83 1.821 161.235 161.235 0 0 0 -86.264-13.071c-30.691 3.709-60.646 16.045-86.622 35.667-81.039 61.216-104.454 177.744-52.2 259.763a160.444 160.444 0 0 0 68.664 60.234 1 1 0 0 1 -.416 1.91zm65.745-370.04a165.743 165.743 0 0 0 -19.9 1.2c-30.692 3.711-60.642 16.044-86.622 35.669-81.04 61.215-104.456 177.742-52.198 259.762a160.431 160.431 0 0 0 68.664 60.234l1.961.894a164.574 164.574 0 0 1 -47.586-48.789c-52.8-82.877-29.172-200.6 52.679-262.432 26.262-19.838 56.551-32.306 87.592-36.058a164.91 164.91 0 0 1 63.634 4.638l-1.857-.846a159.982 159.982 0 0 0 -66.367-14.272z" fill="#111111" id="rKCHaO7X0SLsZ9xg9Ahjh" /><path d="m477.667 76.46c-81.581 61.624-105.04 178.54-52.438 261.1s161.365 99.527 242.945 37.9c81.626-61.66 105.118-178.528 52.516-261.085s-161.396-99.575-243.023-37.915z" fill="#FFFFFF" id="L6SeSHbWt5nHYXwrSoBR" /><path d="m561.4 413.571a166.167 166.167 0 0 1 -29.493-2.64c-44.525-8.023-82.712-33.89-107.526-72.836-52.805-82.877-29.173-200.6 52.68-262.433l.6.8-.6-.8c40.909-30.9 89.529-43.222 136.9-34.683 44.543 8.026 82.744 33.9 107.565 72.858 52.788 82.851 29.122 200.572-52.756 262.421-32.424 24.498-69.705 37.313-107.37 37.313zm-83.13-336.313c-81.039 61.215-104.455 177.742-52.198 259.763 24.511 38.469 62.224 64.019 106.194 71.942 46.805 8.433 94.858-3.747 135.306-34.3 81.065-61.235 104.515-177.758 52.274-259.75-24.518-38.482-62.246-64.039-106.233-71.966-46.818-8.438-94.883 3.753-135.343 34.311z" fill="#111111" id="tWmDIARLmYy_MFGrsDCV3" /><path d="m478.132 433.575 24.727 11.264c64.758 29.5 144.419 21.909 209.639-27.357 98.395-74.324 126.724-215.277 63.312-314.8-21.371-33.542-50.429-58.108-83.331-73.1l-24.727-11.263c32.9 14.989 61.96 39.554 83.332 73.1 63.412 99.524 35.082 240.477-63.312 314.8-65.221 49.265-144.881 56.858-209.64 27.357" fill="url(#linearGradient_Dd_pJbgX)" id="Xk7LY4pFRNIu9J6lEJJ5f" /><path d="m583.377 463.155a195.112 195.112 0 0 1 -80.934-17.4l-24.725-11.265a1 1 0 1 1 .829-1.82 194.656 194.656 0 0 0 104.111 15.776c37.035-4.474 73.174-19.35 104.511-43.021 97.825-73.9 126.119-214.516 63.071-313.467-20.53-32.222-49.2-57.37-82.9-72.724a1 1 0 0 1 .829-1.821l24.727 11.265c34.057 15.515 63.021 40.921 83.76 73.47 30.81 48.356 41.165 107.872 29.159 167.585s-44.933 112.454-92.715 148.547c-31.618 23.884-68.091 38.9-105.476 43.411a202.111 202.111 0 0 1 -24.247 1.464zm-79.723-19.055a194.707 194.707 0 0 0 103.731 15.6c37.035-4.475 73.174-19.351 104.511-43.022 97.825-73.894 126.119-214.515 63.071-313.466-20.475-32.135-49.045-57.235-82.632-72.6a197.994 197.994 0 0 1 59.593 60.261c30.809 48.356 41.165 107.872 29.158 167.586s-44.931 112.459-92.712 148.552c-31.618 23.889-68.091 38.9-105.474 43.416a198.482 198.482 0 0 1 -79.246-6.327z" fill="#111111" id="FbBKKWJX99mTh-6tUTtTy" /><path d="m751.084 91.416c63.412 99.524 35.082 240.477-63.312 314.8-98.346 74.287-229.524 53.822-292.936-45.7-63.442-99.573-35.113-240.526 63.233-314.816 98.395-74.322 229.573-53.856 293.015 45.716zm-82.91 284.044c81.626-61.66 105.118-178.528 52.516-261.086s-161.396-99.574-243.023-37.914c-81.581 61.624-105.04 178.539-52.438 261.1s161.365 99.527 242.945 37.9" fill="#B0C3FF" id="O1AtL9BzhxKF7wE-WjOnL" /><path d="m558.673 451.918a198.027 198.027 0 0 1 -35.164-3.147c-53.637-9.666-99.634-40.818-129.517-87.718-30.821-48.374-41.188-107.9-29.19-167.623 11.998-59.7 44.898-112.448 92.665-148.53a221.544 221.544 0 0 1 81.055-38.97 200.659 200.659 0 0 1 83.857-2.811c53.644 9.667 99.651 40.832 129.549 87.755 30.809 48.356 41.165 107.872 29.158 167.586s-44.931 112.459-92.712 148.552a221.416 221.416 0 0 1 -81.025 38.949 204.2 204.2 0 0 1 -48.676 5.957zm28.546-449.941a202.213 202.213 0 0 0 -48.219 5.899 219.555 219.555 0 0 0 -80.328 38.624c-97.8 73.875-126.057 214.5-62.992 313.478 29.579 46.424 75.1 77.259 128.184 86.825a198.668 198.668 0 0 0 83.009-2.78 219.431 219.431 0 0 0 80.3-38.6c97.825-73.9 126.119-214.515 63.071-313.467-29.597-46.45-75.132-77.298-128.22-86.865a196.055 196.055 0 0 0 -34.805-3.114zm-25.819 411.594a166.167 166.167 0 0 1 -29.493-2.64c-44.525-8.023-82.712-33.89-107.526-72.836-52.805-82.878-29.173-200.6 52.68-262.433 40.909-30.9 89.529-43.22 136.9-34.683 44.543 8.026 82.743 33.9 107.565 72.858 52.788 82.851 29.122 200.572-52.756 262.421-32.424 24.498-69.705 37.313-107.37 37.313zm23.07-373.232c-37.242 0-74.114 12.678-106.2 36.919-81.04 61.215-104.456 177.742-52.198 259.762 24.511 38.469 62.225 64.02 106.194 71.943 46.805 8.433 94.858-3.747 135.306-34.3l.6.8-.6-.8c81.065-61.235 104.515-177.758 52.274-259.75-24.518-38.482-62.246-64.039-106.233-71.966a164.227 164.227 0 0 0 -29.139-2.608z" fill="#111111" id="DuHHH32SI9fzz3WkjvuIX" /></g></g></svg>