<svg width="59" height="16" viewBox="0 0 59 16" fill="none" xmlns="http://www.w3.org/2000/svg">
<path d="M19.312 12L15.916 3.6H18.148L20.536 9.852L22.972 3.6H25.12L21.676 12H19.312ZM27.9008 12.12C27.2528 12.12 26.6648 11.976 26.1368 11.688C25.6168 11.392 25.2048 10.996 24.9008 10.5C24.5968 10.004 24.4448 9.448 24.4448 8.832C24.4448 8.216 24.5888 7.66 24.8768 7.164C25.1728 6.668 25.5728 6.276 26.0768 5.988C26.5808 5.692 27.1408 5.544 27.7568 5.544C28.3808 5.544 28.9328 5.696 29.4128 6C29.8928 6.296 30.2688 6.704 30.5408 7.224C30.8208 7.744 30.9608 8.34 30.9608 9.012V9.492H26.4368C26.5248 9.692 26.6408 9.868 26.7848 10.02C26.9368 10.172 27.1168 10.292 27.3248 10.38C27.5328 10.46 27.7568 10.5 27.9968 10.5C28.2608 10.5 28.5008 10.46 28.7168 10.38C28.9328 10.292 29.1168 10.172 29.2688 10.02L30.5528 11.16C30.1528 11.496 29.7408 11.74 29.3168 11.892C28.9008 12.044 28.4288 12.12 27.9008 12.12ZM26.4008 8.136H29.0528C28.9888 7.928 28.8888 7.752 28.7528 7.608C28.6248 7.456 28.4728 7.34 28.2968 7.26C28.1208 7.172 27.9288 7.128 27.7208 7.128C27.5048 7.128 27.3088 7.168 27.1328 7.248C26.9568 7.328 26.8048 7.444 26.6768 7.596C26.5568 7.74 26.4648 7.92 26.4008 8.136ZM36.1775 12.12C35.5375 12.12 34.9415 12.012 34.3895 11.796C33.8455 11.572 33.3695 11.264 32.9615 10.872C32.5535 10.48 32.2335 10.024 32.0015 9.504C31.7775 8.976 31.6655 8.408 31.6655 7.8C31.6655 7.184 31.7775 6.616 32.0015 6.096C32.2335 5.568 32.5535 5.108 32.9615 4.716C33.3775 4.324 33.8575 4.02 34.4015 3.804C34.9535 3.58 35.5455 3.468 36.1775 3.468C36.6415 3.468 37.0975 3.536 37.5455 3.672C37.9935 3.808 38.4055 4 38.7815 4.248C39.1655 4.488 39.4855 4.776 39.7415 5.112L38.3495 6.48C38.0535 6.104 37.7215 5.824 37.3535 5.64C36.9935 5.456 36.6015 5.364 36.1775 5.364C35.8415 5.364 35.5255 5.428 35.2295 5.556C34.9415 5.676 34.6895 5.844 34.4735 6.06C34.2575 6.276 34.0895 6.532 33.9695 6.828C33.8495 7.124 33.7895 7.448 33.7895 7.8C33.7895 8.144 33.8495 8.464 33.9695 8.76C34.0975 9.048 34.2695 9.304 34.4855 9.528C34.7095 9.744 34.9695 9.912 35.2655 10.032C35.5695 10.152 35.8975 10.212 36.2495 10.212C36.6575 10.212 37.0335 10.124 37.3775 9.948C37.7295 9.772 38.0455 9.512 38.3255 9.168L39.6815 10.5C39.4255 10.828 39.1095 11.116 38.7335 11.364C38.3575 11.604 37.9495 11.792 37.5095 11.928C37.0695 12.056 36.6255 12.12 36.1775 12.12ZM42.4874 12.108C42.0394 12.108 41.6394 12.024 41.2874 11.856C40.9434 11.688 40.6714 11.456 40.4714 11.16C40.2794 10.864 40.1834 10.524 40.1834 10.14C40.1834 9.532 40.4114 9.064 40.8674 8.736C41.3314 8.4 41.9754 8.232 42.7994 8.232C43.2954 8.232 43.7754 8.292 44.2394 8.412V8.1C44.2394 7.78 44.1354 7.544 43.9274 7.392C43.7274 7.232 43.4274 7.152 43.0274 7.152C42.7794 7.152 42.4994 7.192 42.1874 7.272C41.8834 7.352 41.5234 7.48 41.1074 7.656L40.4114 6.228C40.9314 5.996 41.4314 5.824 41.9114 5.712C42.3994 5.592 42.8874 5.532 43.3754 5.532C44.2554 5.532 44.9394 5.744 45.4274 6.168C45.9154 6.584 46.1594 7.172 46.1594 7.932V12H44.2394V11.616C43.9834 11.792 43.7114 11.92 43.4234 12C43.1434 12.072 42.8314 12.108 42.4874 12.108ZM42.0314 10.104C42.0314 10.304 42.1194 10.46 42.2954 10.572C42.4714 10.684 42.7154 10.74 43.0274 10.74C43.2594 10.74 43.4754 10.716 43.6754 10.668C43.8834 10.62 44.0714 10.544 44.2394 10.44V9.624C44.0554 9.576 43.8674 9.54 43.6754 9.516C43.4834 9.492 43.2874 9.48 43.0874 9.48C42.7514 9.48 42.4914 9.536 42.3074 9.648C42.1234 9.752 42.0314 9.904 42.0314 10.104ZM47.3148 12V5.652H49.2588V6.288C49.4668 6.032 49.7108 5.84 49.9908 5.712C50.2708 5.576 50.5828 5.508 50.9268 5.508C51.2708 5.516 51.5148 5.568 51.6588 5.664V7.356C51.5308 7.292 51.3868 7.244 51.2268 7.212C51.0668 7.18 50.9028 7.164 50.7348 7.164C50.4308 7.164 50.1468 7.236 49.8828 7.38C49.6268 7.516 49.4188 7.712 49.2588 7.968V12H47.3148ZM55.4868 12.12C54.8388 12.12 54.2508 11.976 53.7228 11.688C53.2028 11.392 52.7908 10.996 52.4868 10.5C52.1828 10.004 52.0308 9.448 52.0308 8.832C52.0308 8.216 52.1748 7.66 52.4628 7.164C52.7588 6.668 53.1588 6.276 53.6628 5.988C54.1668 5.692 54.7268 5.544 55.3428 5.544C55.9668 5.544 56.5188 5.696 56.9988 6C57.4788 6.296 57.8548 6.704 58.1268 7.224C58.4068 7.744 58.5468 8.34 58.5468 9.012V9.492H54.0228C54.1108 9.692 54.2268 9.868 54.3708 10.02C54.5228 10.172 54.7028 10.292 54.9108 10.38C55.1188 10.46 55.3428 10.5 55.5828 10.5C55.8468 10.5 56.0868 10.46 56.3028 10.38C56.5188 10.292 56.7028 10.172 56.8548 10.02L58.1388 11.16C57.7388 11.496 57.3268 11.74 56.9028 11.892C56.4868 12.044 56.0148 12.12 55.4868 12.12ZM53.9868 8.136H56.6388C56.5748 7.928 56.4748 7.752 56.3388 7.608C56.2108 7.456 56.0588 7.34 55.8828 7.26C55.7068 7.172 55.5148 7.128 55.3068 7.128C55.0908 7.128 54.8948 7.168 54.7188 7.248C54.5428 7.328 54.3908 7.444 54.2628 7.596C54.1428 7.74 54.0508 7.92 53.9868 8.136Z" fill="black"/>
<path d="M1.15128 4C1.15128 4.60418 1.10965 5.99416 1.07781 7.90035C1.0334 10.5583 0.962078 11.1234 1.02451 11.5547C1.11357 12.1701 2.30539 10.6245 3.00732 9.98469C4.8485 8.30646 5.41583 7.91264 5.83775 7.49104C6.222 7.10708 6.8651 6.71438 7.53991 6.21962C8.02665 5.86276 8.52753 5.47323 8.96994 5.08411C9.07674 4.99018 9.17964 4.90563 9.17081 4.89397C8.88568 4.51719 8.23743 5.46945 7.77515 5.82767C7.31239 6.18626 6.89285 6.64627 6.51319 7.15143C6.14455 7.64193 5.98721 8.22293 5.88158 8.72809C5.75197 9.3479 5.98469 10.1982 6.27953 10.7566C6.59202 11.3485 7.09845 11.6714 7.57176 12.0082C8.02625 12.3316 8.63222 12.4295 9.17964 12.5137C10.1348 12.6606 11.4071 12.4938 12.0173 12.2942C12.7328 11.8429 13.2373 11.2135 13.5533 10.6346C13.617 10.4971 13.6586 10.3722 13.8276 9.99131" stroke="#2953D3" stroke-width="1.5" stroke-linecap="round"/>
<path d="M8.02563 5.63979C8.23438 5.49411 8.69665 4.9902 9.15893 4.71555C9.74095 4.36975 10.547 4.69316 10.7778 4.8502C11.2391 5.16399 11.1991 5.86809 11.0853 6.48898C11.0312 6.78408 10.6341 6.9213 10.3194 7.05784C9.52592 7.40208 8.32204 6.94527 7.83832 6.62899C7.37478 6.20865 6.99764 5.78863 6.53474 5.3891C6.42878 5.28346 6.34554 5.1794 6.25977 5.00912" stroke="#2953D3" stroke-width="1.5" stroke-linecap="round"/>
</svg>
